<svg id="Capa_1" enable-background="new 0 0 512 512" height="512" viewBox="0 0 512 512" width="512" xmlns="http://www.w3.org/2000/svg"><g><path d="m422 10h-332c-44.183 0-80 35.817-80 80v332c0 44.183 35.817 80 80 80h332c44.183 0 80-35.817 80-80v-332c0-44.183-35.817-80-80-80z" fill="#83a8bf"/><g><path d="m50 90v332c0 22.091 17.909 40 40 40h332c22.091 0 40-17.909 40-40v-332c0-22.091-17.909-40-40-40h-332c-22.091 0-40 17.909-40 40z" fill="#86e99e"/></g><g><path d="m422 0h-332c-49.626 0-90 40.374-90 90v332c0 49.626 40.374 90 90 90h332c49.626 0 90-40.374 90-90v-332c0-49.626-40.374-90-90-90zm70 422c0 38.598-31.402 70-70 70h-332c-38.598 0-70-31.402-70-70v-332c0-38.598 31.402-70 70-70h332c38.598 0 70 31.402 70 70z"/><path d="m422 40h-120.873c-5.523 0-10 4.477-10 10s4.477 10 10 10h120.873c16.542 0 30 13.458 30 30v332c0 16.542-13.458 30-30 30h-332c-16.542 0-30-13.458-30-30v-332c0-16.542 13.458-30 30-30h121.127c5.523 0 10-4.477 10-10s-4.477-10-10-10h-121.127c-27.57 0-50 22.43-50 50v332c0 27.57 22.43 50 50 50h332c27.57 0 50-22.43 50-50v-332c0-27.57-22.43-50-50-50z"/><path d="m219.193 385.403c1.123.407 2.272.6 3.401.6 4.092 0 7.932-2.531 9.404-6.601l4.72-13.045h31.795l4.667 13.018c1.864 5.198 7.588 7.902 12.788 6.039 5.199-1.864 7.903-7.589 6.039-12.788l-28.276-78.876c-.032-.089-.065-.177-.1-.265-1.777-4.547-6.057-7.484-10.906-7.484-.004 0-.009 0-.012 0-4.855.005-9.135 2.951-10.904 7.506-.028.072-.056.146-.082.219l-28.535 78.873c-1.879 5.193.808 10.925 6.001 12.804zm33.495-63.189 8.655 24.143h-17.389z"/><path d="m114.845 366c-9.295 0-15.472-4.116-18.327-6.569-4.188-3.6-10.501-3.124-14.102 1.065-3.6 4.188-3.123 10.502 1.065 14.102 8.555 7.353 19.693 11.402 31.364 11.402 16.812 0 30.938-10.75 33.589-25.56 1.998-11.157-3.046-25.735-23.193-33.189-9.791-3.622-18.906-7.566-21.711-8.798-2.171-1.752-2.095-4.2-1.948-5.221.203-1.412 1.226-4.861 6.331-6.403 11.209-3.389 21.608 4.845 21.904 5.083 4.223 3.511 10.494 2.962 14.04-1.243 3.56-4.223 3.022-10.531-1.2-14.091-.754-.636-18.71-15.488-40.529-8.895-11.012 3.327-18.807 12.026-20.342 22.702-1.442 10.026 2.891 19.673 11.309 25.177.442.289 12.836 5.87 25.208 10.446 3.497 1.293 11.513 4.945 10.446 10.906-.801 4.467-6.22 9.086-13.904 9.086z"/><path d="m188.073 386c5.523 0 10-4.477 10-10v-70h10.021c5.523 0 10-4.477 10-10s-4.477-10-10-10h-39.881c-5.523 0-10 4.477-10 10s4.477 10 10 10h9.86v70c0 5.523 4.477 10 10 10z"/><path d="m401.979 386c5.523 0 10-4.477 10-10v-70h10.021c5.523 0 10-4.477 10-10s-4.477-10-10-10h-39.882c-5.523 0-10 4.477-10 10s4.477 10 10 10h9.86v70c.001 5.523 4.478 10 10.001 10z"/><path d="m364.119 316.791c0-16.978-14.312-30.791-31.903-30.791h-18.205c-.004 0-.009.001-.013.001s-.008-.001-.013-.001c-5.523 0-10 4.477-10 10v80c0 5.523 4.477 10 10 10s10-4.477 10-10v-19.179l22.618 25.774c1.977 2.253 4.741 3.404 7.52 3.404 2.341 0 4.694-.818 6.592-2.484 4.151-3.643 4.563-9.961.92-14.112l-20.284-23.115c13.153-3.8 22.768-15.582 22.768-29.497zm-31.903 10.791c-2.155 0-5.165.012-8.114.028-.02-4.026-.049-17.386-.061-21.61h8.174c6.452 0 11.903 4.942 11.903 10.791s-5.45 10.791-11.902 10.791z"/><path d="m208.341 135.271c-26.278 26.279-26.278 69.038 0 95.317 12.73 12.73 29.656 19.741 47.659 19.741s34.928-7.011 47.659-19.741c26.278-26.279 26.278-69.038 0-95.317-3.905-3.906-10.237-3.905-14.142 0s-3.906 10.237 0 14.142c18.481 18.481 18.481 48.552 0 67.033-8.953 8.953-20.855 13.883-33.516 13.883s-24.563-4.931-33.516-13.883c-18.481-18.48-18.481-48.551 0-67.033 3.905-3.905 3.905-10.237 0-14.142s-10.238-3.905-14.144 0z"/><path d="m256 182.473c5.523 0 10-4.477 10-10v-52.37c0-5.523-4.477-10-10-10s-10 4.477-10 10v52.37c0 5.523 4.477 10 10 10z"/><circle cx="256.13" cy="50.002" r="10"/></g></g></svg>