<svg id="Layer_1" enable-background="new 0 0 65 65" viewBox="0 0 65 65" xmlns="http://www.w3.org/2000/svg"><g><g><circle cx="32.5" cy="32.5" fill="#eaebf0" r="32"/></g><g><path d="m49 34.8c0 2.2-.5 4-1.2 5.5-1.8 4.1-5.3 6-5.3 6s-2.6-1.5-4.5-4.6c-.3-.4-.5-.9-.7-1.4-.7-1.5-1.2-3.4-1.2-5.5 0 0 .8 0 1.9-.2 1.2-.2 2.9-.8 4.5-2 3.1 2.4 6.5 2.2 6.5 2.2z" fill="#b4dbfd"/><path d="m42.6 47.2-.4-.2c-.1-.1-2.8-1.6-4.8-4.8-.3-.4-.5-.9-.8-1.5-.8-1.8-1.2-3.8-1.2-5.8v-.9h.8s.7 0 1.7-.2c1.1-.2 2.7-.7 4.2-1.9l.5-.4.4.5c2.8 2.2 5.9 2 5.9 2h.8v.8c0 2.1-.4 4-1.3 5.8-1.9 4.2-5.4 6.2-5.6 6.3zm-5.7-11.6c.1 1.6.5 3.1 1.1 4.5.2.5.5.9.7 1.3 1.4 2.2 3.1 3.6 3.9 4.1.9-.6 3.2-2.4 4.6-5.4.6-1.4 1-2.9 1.1-4.5-1.2-.1-3.5-.4-5.7-2-1.6 1.1-3.3 1.6-4.4 1.8-.5.1-1 .1-1.3.2z" fill="#47769d"/></g><g><path d="m12.5 13.6h40v11.4h-40z" fill="#ffd087"/><path d="m53.2 25.8h-41.4v-12.9h41.5v12.9zm-39.9-1.5h38.5v-9.9h-38.5z" fill="#47769d"/></g><g><circle cx="32.5" cy="49.8" fill="#b3e3a5" r="3.8"/><path d="m32.5 54.3c-2.5 0-4.6-2.1-4.6-4.6s2.1-4.6 4.6-4.6 4.6 2.1 4.6 4.6-2.1 4.6-4.6 4.6zm0-7.6c-1.7 0-3.1 1.4-3.1 3.1s1.4 3.1 3.1 3.1 3.1-1.4 3.1-3.1-1.4-3.1-3.1-3.1z" fill="#47769d"/></g><g><path d="m11.8 49h17.7v1.5h-17.7z" fill="#47769d"/></g><g><path d="m35.6 49h17.7v1.5h-17.7z" fill="#47769d"/></g><g><path d="m31.7 40.7h1.5v6h-1.5z" fill="#47769d"/></g><g><path d="m17.7 18.6h2.8v1.5h-2.8z" fill="#47769d"/></g><g><path d="m23.2 18.6h2.8v1.5h-2.8z" fill="#47769d"/></g><g><path d="m28.6 18.6h2.8v1.5h-2.8z" fill="#47769d"/></g><g><path d="m52.5 28.9v11.4h-4.7c.7-1.5 1.2-3.4 1.2-5.5 0 0-3.4.2-6.4-2.2-1.6 1.3-3.3 1.8-4.5 2-1.1.2-1.9.2-1.9.2 0 2.2.5 4 1.2 5.5h-24.9v-11.4z" fill="#f5fdff"/><path d="m53.3 41.1h-6.6l.5-1.1c.6-1.4 1-2.9 1.1-4.5-1.2-.1-3.5-.4-5.7-2-1.6 1.1-3.3 1.6-4.4 1.8-.5.1-.9.1-1.3.2.1 1.6.5 3.1 1.1 4.5l.5 1.1h-26.7v-12.9h41.5zm-4.4-1.5h2.8v-9.9h-38.4v9.9h22.9c-.5-1.5-.8-3.1-.8-4.8v-.8h.8s.7 0 1.7-.2c1.1-.2 2.7-.7 4.2-1.9l.5-.4.4.5c2.8 2.2 5.9 2 5.9 2h.8v.8c0 1.7-.2 3.3-.8 4.8z" fill="#47769d"/></g><g><path d="m17.7 33.9h2.8v1.5h-2.8z" fill="#47769d"/></g><g><path d="m23.2 33.9h2.8v1.5h-2.8z" fill="#47769d"/></g><g><path d="m28.6 33.9h2.8v1.5h-2.8z" fill="#47769d"/></g></g></svg>