<?xml version="1.0" encoding="iso-8859-1"?>
<!-- Generator: Adobe Illustrator 19.0.0, SVG Export Plug-In . SVG Version: 6.00 Build 0)  -->
<svg version="1.1" id="Capa_1" xmlns="http://www.w3.org/2000/svg" xmlns:xlink="http://www.w3.org/1999/xlink" x="0px" y="0px"
	 viewBox="0 0 512 512" style="enable-background:new 0 0 512 512;" xml:space="preserve">
<g>
	<rect x="335.448" y="70.621" style="fill:#F0E4D6;" width="17.655" height="70.621"/>
	<rect x="335.448" y="203.034" style="fill:#F0E4D6;" width="17.655" height="105.931"/>
	<rect x="335.448" y="370.759" style="fill:#F0E4D6;" width="17.655" height="70.621"/>
	<rect x="211.862" y="167.724" style="fill:#F0E4D6;" width="79.448" height="17.655"/>
	<path style="fill:#F0E4D6;" d="M344.276,264.828H150.069c-4.873,0-8.828-3.955-8.828-8.828v-52.966h17.655v44.138h185.379V264.828z
		"/>
</g>
<path style="fill:#87CED9;" d="M300.138,0h88.276c19.5,0,35.31,15.81,35.31,35.31l0,0c0,19.5-15.81,35.31-35.31,35.31h-88.276
	c-19.5,0-35.31-15.81-35.31-35.31l0,0C264.828,15.81,280.638,0,300.138,0z"/>
<polygon style="fill:#88B337;" points="344.276,220.69 264.828,176.552 344.276,132.414 423.724,176.552 "/>
<rect x="264.828" y="300.138" style="fill:#4398D1;" width="158.897" height="70.621"/>
<path style="fill:#F56B0F;" d="M300.138,441.379h88.276c19.5,0,35.31,15.81,35.31,35.31l0,0c0,19.5-15.81,35.31-35.31,35.31h-88.276
	c-19.5,0-35.31-15.81-35.31-35.31l0,0C264.828,457.19,280.638,441.379,300.138,441.379z"/>
<rect x="88.276" y="141.241" style="fill:#F9B44D;" width="123.586" height="70.621"/>
<path style="fill:#7DC6D1;" d="M400.772,2.348l-68.264,68.273h55.905c19.465,0.018,35.266-15.748,35.284-35.213
	C423.715,20.683,414.57,7.495,400.772,2.348z"/>
<polygon style="fill:#80AB30;" points="315.904,204.924 344.276,220.69 423.724,176.552 372.648,148.18 "/>
<polygon style="fill:#3F8FC4;" points="317.793,370.759 423.724,370.759 423.724,300.138 388.414,300.138 "/>
<path style="fill:#E8650E;" d="M400.772,443.727L332.509,512h55.905c19.465,0.018,35.266-15.748,35.284-35.213
	C423.715,462.062,414.57,448.874,400.772,443.727z"/>
<polygon style="fill:#F7AA36;" points="132.414,211.862 211.862,211.862 211.862,141.241 203.034,141.241 "/>
<g>
</g>
<g>
</g>
<g>
</g>
<g>
</g>
<g>
</g>
<g>
</g>
<g>
</g>
<g>
</g>
<g>
</g>
<g>
</g>
<g>
</g>
<g>
</g>
<g>
</g>
<g>
</g>
<g>
</g>
</svg>
