<svg height="512" viewBox="0 0 512 512" width="512" xmlns="http://www.w3.org/2000/svg" xmlns:xlink="http://www.w3.org/1999/xlink"><linearGradient id="linear-gradient" gradientUnits="userSpaceOnUse" x1="-60.64" x2="305.21" y1="104.32" y2="606.08"><stop offset="0" stop-color="#ff0a6c"/><stop offset="1" stop-color="#4a3cdb"/></linearGradient><linearGradient id="linear-gradient-2" x1="106.74" x2="472.6" xlink:href="#linear-gradient" y1="-17.72" y2="484.03"/><linearGradient id="linear-gradient-3" x1="97.27" x2="463.12" xlink:href="#linear-gradient" y1="-10.82" y2="490.94"/><linearGradient id="linear-gradient-4" x1="166.53" x2="532.38" xlink:href="#linear-gradient" y1="-61.31" y2="440.44"/><linearGradient id="linear-gradient-5" x1="-29.98" x2="335.88" xlink:href="#linear-gradient" y1="81.96" y2="583.72"/><linearGradient id="linear-gradient-6" x1="209.22" x2="575.07" xlink:href="#linear-gradient" y1="-92.44" y2="409.32"/><linearGradient id="linear-gradient-7" x1="29.21" x2="395.06" xlink:href="#linear-gradient" y1="38.81" y2="540.56"/><linearGradient id="linear-gradient-8" x1="99.32" x2="465.17" xlink:href="#linear-gradient" y1="-12.31" y2="489.45"/><g id="_38_Log_in" data-name="38 Log in"><path d="m11 192.09a6 6 0 0 0 -6 6v9a6 6 0 0 0 12 0v-9a6 6 0 0 0 -6-6z" fill="url(#linear-gradient)"/><path d="m431.52 326.74-80.33-65.38a25.63 25.63 0 0 0 -41.3 24.94l20.46 101.53a20.29 20.29 0 0 0 17.23 16.26 21.58 21.58 0 0 0 3 .21 20.26 20.26 0 0 0 18.08-11l7.73-14.81a28.43 28.43 0 0 1 25.31-15.35h.1l16.71.06h.07a20.52 20.52 0 0 0 12.95-36.43zm-4.93 18.78a8.29 8.29 0 0 1 -8 5.65l-16.7-.06h-.15a40.4 40.4 0 0 0 -35.95 21.8l-7.79 14.81a8.52 8.52 0 0 1 -15.9-2.26l-20.44-101.53a13.34 13.34 0 0 1 6.34-14.36 14.14 14.14 0 0 1 7.18-2 13.2 13.2 0 0 1 8.46 3.12l80.33 65.38a8.3 8.3 0 0 1 2.62 9.45z" fill="url(#linear-gradient-2)"/><path d="m291.34 214.47h-26.46a6 6 0 0 0 0 12h17.5c-6.42 12.3-17.57 20.12-29.54 20.12-19.41 0-35.21-19.74-35.21-44s15.8-44 35.21-44c10.79 0 20.85 6.09 27.59 16.72a6 6 0 1 0 10.13-6.43c-9-14.17-22.73-22.29-37.72-22.29-26 0-47.21 25.12-47.21 56s21.18 56 47.21 56c19.59 0 37.36-14.6 44.22-36.32a6 6 0 0 0 -5.72-7.8z" fill="url(#linear-gradient-3)"/><path d="m359 258.59a6 6 0 0 0 6-6v-100a6 6 0 1 0 -12 0v100a6 6 0 0 0 6 6z" fill="url(#linear-gradient-4)"/><path d="m94.12 246.59h-30.46a1.55 1.55 0 0 1 -1.54-1.59v-92.41a6 6 0 0 0 -12 0v92.41a13.56 13.56 0 0 0 13.54 13.55h30.46a6 6 0 1 0 0-12z" fill="url(#linear-gradient-5)"/><path d="m455.88 146.59a6 6 0 0 0 -6 6v81l-48-83a8.09 8.09 0 0 0 -15.09 4.05v97.91a6 6 0 0 0 12 0v-83.31l49.45 85.5a7.31 7.31 0 0 0 13.64-3.66v-98.49a6 6 0 0 0 -6-6z" fill="url(#linear-gradient-6)"/><path d="m148.63 146.59c-27.65 0-50.15 25.12-50.15 56s22.5 56 50.15 56 50.15-25.13 50.15-56-22.5-56-50.15-56zm0 100c-21 0-38.15-19.74-38.15-44s17.12-44 38.15-44 38.15 19.73 38.15 44-17.12 44-38.15 44z" fill="url(#linear-gradient-7)"/><path d="m469.43 107.7h-426.87a37.6 37.6 0 0 0 -37.56 37.56v33.93a6 6 0 0 0 12 0v-33.93a25.59 25.59 0 0 1 25.56-25.56h426.87a25.59 25.59 0 0 1 25.57 25.56v114.65a25.6 25.6 0 0 1 -25.57 25.57h-88.61l-29.63-24.12a25.63 25.63 0 0 0 -41.45 24.12h-267.18a25.6 25.6 0 0 1 -25.56-25.57v-33.91a6 6 0 0 0 -12 0v33.92a37.61 37.61 0 0 0 37.56 37.57h274.49a6 6 0 0 0 5.89-7.19l-1.28-6.36a13.63 13.63 0 0 1 22-13.26l31.28 25.46a6 6 0 0 0 3.78 1.35h90.75a37.61 37.61 0 0 0 37.53-37.58v-114.65a37.61 37.61 0 0 0 -37.57-37.56z" fill="url(#linear-gradient-8)"/></g></svg>