<svg id="_02_website_layout" viewBox="0 0 512 512" xmlns="http://www.w3.org/2000/svg" data-name="02 website layout"><g><rect fill="#fcfffc" height="489.08" rx="20" width="497" x="7.5" y="11.46"/><path d="m504.5 83.87v-52.41c0-11.05-8.95-20-20-20h-457c-11.05 0-20 8.95-20 20v52.41z" fill="#8379c1"/><rect fill="#9be69d" height="52.91" rx="15" width="134.29" x="40.89" y="415.25"/><rect fill="#fe7ab6" height="176.76" rx="15" width="134.29" x="40.89" y="203.61"/><rect fill="#ffd15b" height="264.55" rx="15" width="251.87" x="219.24" y="203.61"/><rect fill="#2ed1e2" height="52.91" rx="15" width="430.23" x="40.89" y="115.82"/></g><g><g fill="none"><rect height="249.55" rx="7.5" width="236.87" x="226.74" y="211.11"/><rect height="37.91" rx="7.5" width="119.29" x="48.39" y="422.75"/><rect height="161.76" rx="7.5" width="119.29" x="48.39" y="211.11"/><path d="m497 31.46c0-6.89-5.61-12.5-12.5-12.5h-457c-6.89 0-12.5 5.61-12.5 12.5v44.91h482zm-439.39 23.7h-5.65c-4.14 0-7.5-3.36-7.5-7.5s3.36-7.5 7.5-7.5h5.65c4.14 0 7.5 3.36 7.5 7.5s-3.36 7.5-7.5 7.5zm39.84 0h-5.65c-4.14 0-7.5-3.36-7.5-7.5s3.36-7.5 7.5-7.5h5.65c4.14 0 7.5 3.36 7.5 7.5s-3.36 7.5-7.5 7.5zm39.84 0h-5.65c-4.14 0-7.5-3.36-7.5-7.5s3.36-7.5 7.5-7.5h5.65c4.14 0 7.5 3.36 7.5 7.5s-3.36 7.5-7.5 7.5z"/><path d="m15 91.37v389.17c0 6.89 5.61 12.5 12.5 12.5h457c6.89 0 12.5-5.61 12.5-12.5v-389.17zm167.67 361.79c0 12.41-10.09 22.5-22.5 22.5h-104.28c-12.41 0-22.5-10.09-22.5-22.5v-22.91c0-12.41 10.09-22.5 22.5-22.5h104.29c12.41 0 22.5 10.09 22.5 22.5v22.91zm0-87.79c0 12.41-10.09 22.5-22.5 22.5h-104.28c-12.41 0-22.5-10.09-22.5-22.5v-146.76c0-12.41 10.09-22.5 22.5-22.5h104.29c12.41 0 22.5 10.09 22.5 22.5v146.76zm295.94 87.79c0 12.41-10.09 22.5-22.5 22.5h-221.87c-12.41 0-22.5-10.09-22.5-22.5v-234.55c0-12.41 10.09-22.5 22.5-22.5h221.87c12.41 0 22.5 10.09 22.5 22.5zm0-299.43c0 12.41-10.09 22.5-22.5 22.5h-400.22c-12.41 0-22.5-10.09-22.5-22.5v-22.91c0-12.41 10.09-22.5 22.5-22.5h400.22c12.41 0 22.5 10.09 22.5 22.5z"/><rect height="37.91" rx="7.5" width="415.23" x="48.39" y="123.32"/></g><path d="m484.5 3.96h-457c-15.16 0-27.5 12.34-27.5 27.5v449.08c0 15.16 12.34 27.5 27.5 27.5h457c15.16 0 27.5-12.34 27.5-27.5v-449.08c0-15.16-12.34-27.5-27.5-27.5zm-469.5 27.5c0-6.89 5.61-12.5 12.5-12.5h457c6.89 0 12.5 5.61 12.5 12.5v44.91h-482zm469.5 461.58h-457c-6.89 0-12.5-5.61-12.5-12.5v-389.17h482v389.17c0 6.89-5.61 12.5-12.5 12.5z"/><path d="m160.17 407.75h-104.28c-12.41 0-22.5 10.09-22.5 22.5v22.91c0 12.41 10.09 22.5 22.5 22.5h104.29c12.41 0 22.5-10.09 22.5-22.5v-22.91c0-12.41-10.09-22.5-22.5-22.5zm7.5 45.41c0 4.14-3.36 7.5-7.5 7.5h-104.28c-4.14 0-7.5-3.36-7.5-7.5v-22.91c0-4.14 3.36-7.5 7.5-7.5h104.29c4.14 0 7.5 3.36 7.5 7.5v22.91z"/><path d="m160.17 196.11h-104.28c-12.41 0-22.5 10.09-22.5 22.5v146.76c0 12.41 10.09 22.5 22.5 22.5h104.29c12.41 0 22.5-10.09 22.5-22.5v-146.76c0-12.41-10.09-22.5-22.5-22.5zm7.5 169.26c0 4.14-3.36 7.5-7.5 7.5h-104.28c-4.14 0-7.5-3.36-7.5-7.5v-146.76c0-4.14 3.36-7.5 7.5-7.5h104.29c4.14 0 7.5 3.36 7.5 7.5v146.76z"/><path d="m456.11 196.11h-221.87c-12.41 0-22.5 10.09-22.5 22.5v234.55c0 12.41 10.09 22.5 22.5 22.5h221.87c12.41 0 22.5-10.09 22.5-22.5v-234.55c0-12.41-10.09-22.5-22.5-22.5zm7.5 257.05c0 4.14-3.36 7.5-7.5 7.5h-221.87c-4.14 0-7.5-3.36-7.5-7.5v-234.55c0-4.14 3.36-7.5 7.5-7.5h221.87c4.14 0 7.5 3.36 7.5 7.5z"/><path d="m456.11 108.32h-400.22c-12.41 0-22.5 10.09-22.5 22.5v22.91c0 12.41 10.09 22.5 22.5 22.5h400.22c12.41 0 22.5-10.09 22.5-22.5v-22.91c0-12.41-10.09-22.5-22.5-22.5zm7.5 45.41c0 4.14-3.36 7.5-7.5 7.5h-400.22c-4.14 0-7.5-3.36-7.5-7.5v-22.91c0-4.14 3.36-7.5 7.5-7.5h400.22c4.14 0 7.5 3.36 7.5 7.5z"/><path d="m57.61 40.16h-5.65c-4.14 0-7.5 3.36-7.5 7.5s3.36 7.5 7.5 7.5h5.65c4.14 0 7.5-3.36 7.5-7.5s-3.36-7.5-7.5-7.5z"/><path d="m97.45 40.16h-5.65c-4.14 0-7.5 3.36-7.5 7.5s3.36 7.5 7.5 7.5h5.65c4.14 0 7.5-3.36 7.5-7.5s-3.36-7.5-7.5-7.5z"/><path d="m137.29 40.16h-5.65c-4.14 0-7.5 3.36-7.5 7.5s3.36 7.5 7.5 7.5h5.65c4.14 0 7.5-3.36 7.5-7.5s-3.36-7.5-7.5-7.5z"/></g></svg>