<svg viewBox="0 0 96 96" xmlns="http://www.w3.org/2000/svg" xmlns:xlink="http://www.w3.org/1999/xlink" id="Icons_Transfer1_RTL" overflow="hidden"><style>
.MsftOfcThm_Accent3_lumMod_75_Fill_v2 {
 fill:#658457; 
}
</style>
<path d="M6.9 45.6 9.4 43.1 65.9 43.1 69.2 46.4 69.2 62.8 65.9 66.1 9.4 66.1 6.9 63.6 6.9 45.6ZM2 38.3 2 71 74 71 74 38.3 2 38.3Z" class="MsftOfcThm_Accent3_lumMod_75_Fill_v2" fill="#658457"/><ellipse cx="38" cy="54.6" rx="6.5" ry="8.2" class="MsftOfcThm_Accent3_lumMod_75_Fill_v2" fill="#658457"/><circle cx="58.5" cy="54.6" r="2.5" class="MsftOfcThm_Accent3_lumMod_75_Fill_v2" fill="#658457"/><circle cx="17.5" cy="54.6" r="2.5" class="MsftOfcThm_Accent3_lumMod_75_Fill_v2" fill="#658457"/><path d="M39.5 29 64.7 34 20.7 16 17.2 24.6 22.1 25.6 23.4 22.5Z" class="MsftOfcThm_Accent3_lumMod_75_Fill_v2" fill="#658457"/><path d="M52.7 35 10.8 26.7 9.1 35 14.1 35 14.7 32.5 27.6 35Z" class="MsftOfcThm_Accent3_lumMod_75_Fill_v2" fill="#658457"/><rect x="78" y="44" width="16" height="4" class="MsftOfcThm_Accent3_lumMod_75_Fill_v2" fill="#658457"/><rect x="78" y="52" width="11" height="4" class="MsftOfcThm_Accent3_lumMod_75_Fill_v2" fill="#658457"/><rect x="78" y="60" width="14" height="4" class="MsftOfcThm_Accent3_lumMod_75_Fill_v2" fill="#658457"/></svg>