<?xml version="1.0" encoding="utf-8" standalone="yes"?>
<!DOCTYPE svg PUBLIC "-//W3C//DTD SVG 1.1//EN" "http://www.w3.org/Graphics/SVG/1.1/DTD/svg11.dtd">
<svg width="654" height="456" viewBox="0 0 654 456" style="fill:none;stroke:none;fill-rule:evenodd;clip-rule:evenodd;stroke-linecap:round;stroke-linejoin:round;stroke-miterlimit:1.5;" version="1.1" xmlns="http://www.w3.org/2000/svg" xmlns:xlink="http://www.w3.org/1999/xlink"><style class="text-font-style fontImports" data-font-family="Roboto">@import url('https://fonts.googleapis.com/css2?family=Roboto:wght@400;700&amp;display=block');</style><g id="items" style="isolation: isolate"><g id="blend" style="mix-blend-mode: normal"><g id="g-root-cp_1_g-1_vbpzy0mt58g5-fill" data-item-order="-218150" transform="translate(32, 188)"><g id="cp_1_g-1_vbpzy0mt58g5-fill" stroke="none" fill="#40587e"><g><path d="M 10 52C 10 28.804 28.804 10 52 10L 100 10C 116.8266 10 131.3421 19.8951 138.045 34.1838C 133.829 34.5775 129.8212 35.581 126.0602 37.128C 120.8915 28.0904 111.157 22 100 22L 52 22C 35.4315 22 22 35.4315 22 52C 22 68.5685 35.4315 82 52 82C 68.1364 82 84.2902 82.221 100.4249 81.9971C 104.6106 81.9389 108.589 81.0236 112.1927 79.4188C 122.6851 74.7459 130 64.2272 130 52C 130 50.844 129.9346 49.7032 129.8073 48.5813C 133.411 46.9764 137.3894 46.0611 141.5751 46.0029C 141.8551 47.9616 142 49.9639 142 52C 142 69.5541 131.2308 84.5929 115.9388 90.8701C 112.1992 92.4051 108.1892 93.4162 104 93.812C 102.6834 93.9364 101.3491 94 100 94L 52 94C 28.804 94 10 75.196 10 52Z"></path></g></g></g><g id="g-root-cp_2_g-2_vbpzy0mt58g7-fill" data-item-order="-218146" transform="translate(122, 212)"><g id="cp_2_g-2_vbpzy0mt58g7-fill" stroke="none" fill="#4371bd"><g><path d="M 52 82C 40.8422 82 31.1071 75.9087 25.9388 66.8701C 22.1992 68.4051 18.1892 69.4162 14 69.812L 13.9531 69.812C 20.655 84.103 35.1717 94 52 94L 76 94L 100 94C 116.8283 94 131.345 84.103 138.047 69.812L 138 69.812C 133.8108 69.4162 129.8008 68.4051 126.0612 66.8701C 120.8929 75.9087 111.1578 82 100 82L 76 82L 52 82ZM 10.4249 57.9971C 10.1449 56.0384 10 54.0361 10 52C 10 34.4567 20.7831 19.4121 36.0602 13.128C 39.8212 11.581 43.829 10.5775 48.045 10.1838C 49.347 10.0622 50.6662 10 52 10L 76 10L 100 10C 101.3338 10 102.653 10.0622 103.955 10.1838C 108.171 10.5775 112.1788 11.581 115.9398 13.128C 131.2169 19.4121 142 34.4567 142 52C 142 54.0361 141.8551 56.0384 141.5751 57.9971C 137.3894 57.9389 133.411 57.0236 129.8073 55.4188C 129.9346 54.2968 130 53.156 130 52C 130 39.7728 122.6851 29.2541 112.1927 24.5813C 108.589 22.9764 104.6106 22.0611 100.4249 22.0029C 92.2868 21.89 84.1431 21.9048 76 21.9385C 67.8569 21.9048 59.7132 21.89 51.5751 22.0029C 47.3894 22.0611 43.411 22.9764 39.8073 24.5813C 29.3149 29.2541 22 39.7728 22 52C 22 53.156 22.0654 54.2968 22.1927 55.4188C 18.589 57.0236 14.6106 57.9389 10.4249 57.9971ZM 10.4249 57.9971C 10.2835 57.999 10.1419 58 10 58M 141.5751 57.9971C 141.7165 57.999 141.8581 58 142 58"></path></g></g></g><g id="g-root-cp_3_g-3_qwiywomt562p-fill" data-item-order="-218142" transform="translate(212, 188)"><g id="cp_3_g-3_qwiywomt562p-fill" stroke="none" fill="#4f84da"><g><path d="M 100 22C 111.1578 22 120.8929 28.0913 126.0612 37.1299C 129.8008 35.5949 133.8108 34.5838 138 34.188L 138.047 34.188C 131.345 19.897 116.8283 10 100 10L 52 10C 35.1717 10 20.655 19.897 13.9531 34.188L 14 34.188C 18.1892 34.5838 22.1992 35.5949 25.9388 37.1299C 31.1072 28.0913 40.8422 22 52 22L 100 22ZM 141.5751 46.003C 141.8551 47.9616 142 49.9639 142 52C 142 69.5433 131.2169 84.5879 115.9398 90.872C 112.1788 92.419 108.171 93.4225 103.955 93.8162C 102.653 93.9378 101.3338 94 100 94L 52 94C 50.6662 94 49.347 93.9378 48.045 93.8162C 43.829 93.4225 39.8211 92.419 36.0602 90.872C 20.7831 84.5879 10 69.5433 10 52C 10 49.9639 10.1449 47.9616 10.4249 46.0029C 14.6106 46.0611 18.589 46.9764 22.1927 48.5812C 22.0654 49.7032 22 50.844 22 52C 22 64.2272 29.3149 74.7459 39.8073 79.4187C 43.411 81.0236 47.3894 81.9389 51.5751 81.997C 59.7132 82.11 67.8569 82.0952 76 82.0615C 84.1431 82.0952 92.2868 82.11 100.4249 81.9971C 104.6106 81.9389 108.589 81.0236 112.1927 79.4188C 122.6851 74.7459 130 64.2272 130 52C 130 50.844 129.9346 49.7032 129.8073 48.5813C 133.411 46.9764 137.3894 46.0611 141.5751 46.003ZM 141.5751 46.003C 141.7165 46.001 141.8581 46 142 46M 10.4249 46.0029C 10.2835 46.001 10.1419 46 10.000001 46"></path></g></g></g><g id="g-root-cp_4_g-4_qwiywomt562r-fill" data-item-order="-218138" transform="translate(302, 212)"><g id="cp_4_g-4_qwiywomt562r-fill" stroke="none" fill="#4e8bef"><g><path d="M 52 82C 40.8422 82 31.1071 75.9087 25.9388 66.8701C 22.1992 68.4051 18.1892 69.4162 14 69.812L 13.9531 69.812C 20.655 84.103 35.1717 94 52 94L 76 94L 100 94C 116.8283 94 131.345 84.103 138.047 69.812L 138 69.812C 133.8108 69.4162 129.8008 68.4051 126.0612 66.8701C 120.8929 75.9087 111.1578 82 100 82L 76 82L 52 82ZM 10.4249 57.9971C 10.1449 56.0384 10 54.0361 10 52C 10 34.4567 20.7831 19.4121 36.0602 13.128C 39.8212 11.581 43.829 10.5775 48.045 10.1838C 49.347 10.0622 50.6662 10 52 10L 76 10L 100 10C 101.3338 10 102.653 10.0622 103.955 10.1838C 108.171 10.5775 112.1788 11.581 115.9398 13.128C 131.2169 19.4121 142 34.4567 142 52C 142 54.0361 141.8551 56.0384 141.5751 57.9971C 137.3894 57.9389 133.411 57.0236 129.8073 55.4188C 129.9346 54.2968 130 53.156 130 52C 130 39.7728 122.6851 29.2541 112.1927 24.5813C 108.589 22.9764 104.6106 22.0611 100.4249 22.0029C 92.2868 21.89 84.1431 21.9048 76 21.9385C 67.8569 21.9048 59.7132 21.89 51.5751 22.0029C 47.3894 22.0611 43.411 22.9764 39.8073 24.5813C 29.3149 29.2541 22 39.7728 22 52C 22 53.156 22.0654 54.2968 22.1927 55.4188C 18.589 57.0236 14.6106 57.9389 10.4249 57.9971ZM 10.4249 57.9971C 10.2835 57.999 10.1419 58 10 58M 141.5751 57.9971C 141.7165 57.999 141.8581 58 142 58"></path></g></g></g><g id="g-root-cp_5_g-5_i0vynsmt56vh-fill" data-item-order="-218134" transform="translate(392, 188)"><g id="cp_5_g-5_i0vynsmt56vh-fill" stroke="none" fill="#5b99ff"><g><path d="M 100 22C 111.1578 22 120.8929 28.0913 126.0612 37.1299C 129.8008 35.5949 133.8108 34.5838 138 34.188L 138.047 34.188C 131.345 19.897 116.8283 10 100 10L 52 10C 35.1717 10 20.655 19.897 13.9531 34.188L 14 34.188C 18.1892 34.5838 22.1992 35.5949 25.9388 37.1299C 31.1072 28.0913 40.8422 22 52 22L 100 22ZM 141.5751 46.003C 141.8551 47.9616 142 49.9639 142 52C 142 69.5433 131.2169 84.5879 115.9398 90.872C 112.1788 92.419 108.171 93.4225 103.955 93.8162C 102.653 93.9378 101.3338 94 100 94L 52 94C 50.6662 94 49.347 93.9378 48.045 93.8162C 43.829 93.4225 39.8211 92.419 36.0602 90.872C 20.7831 84.5879 10 69.5433 10 52C 10 49.9639 10.1449 47.9616 10.4249 46.0029C 14.6106 46.0611 18.589 46.9764 22.1927 48.5812C 22.0654 49.7032 22 50.844 22 52C 22 64.2272 29.3149 74.7459 39.8073 79.4187C 43.411 81.0236 47.3894 81.9389 51.5751 81.997C 59.7132 82.11 67.8569 82.0952 76 82.0615C 84.1431 82.0952 92.2868 82.11 100.4249 81.9971C 104.6106 81.9389 108.589 81.0236 112.1927 79.4188C 122.6851 74.7459 130 64.2272 130 52C 130 50.844 129.9346 49.7032 129.8073 48.5813C 133.411 46.9764 137.3894 46.0611 141.5751 46.003ZM 141.5751 46.003C 141.7165 46.001 141.8581 46 142 46M 10.4249 46.0029C 10.2835 46.001 10.1419 46 10.000001 46"></path></g></g></g><g id="g-root-cp_6_g-6_i0vynsmt56vj-fill" data-item-order="-218130" transform="translate(482, 212)"><g id="cp_6_g-6_i0vynsmt56vj-fill" stroke="none" fill="#95bdff"><g><path d="M 142 52C 142 75.196 123.196 94 100 94L 52 94C 35.1734 94 20.6579 84.1049 13.955 69.8162C 18.171 69.4225 22.1788 68.419 25.9398 66.872C 31.1085 75.9096 40.843 82 52 82L 100 82C 116.5685 82 130 68.5685 130 52C 130 35.4315 116.5685 22 100 22C 83.8636 22 67.7098 21.779 51.5751 22.0029C 47.3894 22.0611 43.411 22.9764 39.8073 24.5812C 29.3149 29.2541 22 39.7728 22 52C 22 53.156 22.0654 54.2968 22.1927 55.4187C 18.589 57.0236 14.6106 57.9389 10.4249 57.9971C 10.1449 56.0384 10 54.0361 10 52C 10 34.4459 20.7692 19.4071 36.0612 13.1299C 39.8008 11.5949 43.8108 10.5838 48 10.188C 49.3166 10.0636 50.6509 10 52 10L 100 10C 123.196 10 142 28.804 142 52Z"></path></g></g></g><g id="g-root-tx_statefed_13z90e0msy682-fill" data-item-order="0" transform="translate(398, 128)"><g id="tx_statefed_13z90e0msy682-fill" stroke="none" fill="#484848"><g><text style="font: 10px Roboto, sans-serif; white-space: pre;" font-size="10px" font-family="Roboto, sans-serif"><tspan x="25.76" y="21.56" dominant-baseline="ideographic">State-federal health </tspan><tspan x="12.94" y="33.56" dominant-baseline="ideographic">insurance for low-income </tspan><tspan x="45.31" y="45.56" dominant-baseline="ideographic">individuals</tspan></text></g></g></g><g id="g-root-tx_coverage_1lpwjsomsy70m-fill" data-item-order="0" transform="translate(224, 140)"><g id="tx_coverage_1lpwjsomsy70m-fill" stroke="none" fill="#484848"><g><text style="font: 10px Roboto, sans-serif; white-space: pre;" font-size="10px" font-family="Roboto, sans-serif"><tspan x="13.66" y="21.56" dominant-baseline="ideographic">Coverage from private </tspan><tspan x="15.26" y="33.56" dominant-baseline="ideographic">insurance companies</tspan></text></g></g></g><g id="g-root-tx_familyan_i0w1tkmtj8y2-fill" data-item-order="0" transform="translate(38, 128)"><g id="tx_familyan_i0w1tkmtj8y2-fill" stroke="none" fill="#484848"><g><text style="font: 10px Roboto, sans-serif; white-space: pre;" font-size="10px" font-family="Roboto, sans-serif"><tspan x="27.93" y="21.56" dominant-baseline="ideographic">Family and friends </tspan><tspan x="16.85" y="33.56" dominant-baseline="ideographic">providing personal care </tspan><tspan x="35.15" y="45.56" dominant-baseline="ideographic">and assistance</tspan></text></g></g></g><g id="g-root-ic_3_1cw4vncmtf1mz-fill" data-item-order="0" transform="translate(80, 212)"></g><g id="g-root-tx_medicaid_18f2iigmsy5ft-fill" data-item-order="0" transform="translate(428, 98)"><g id="tx_medicaid_18f2iigmsy5ft-fill" stroke="none" fill="#484848"><g><text style="font: bold 11.7px Roboto, sans-serif; white-space: pre;" font-weight="bold" font-size="11.7px" font-family="Roboto, sans-serif"><tspan x="15.86" y="28.33" dominant-baseline="ideographic">Medicaid</tspan></text></g></g></g><g id="g-root-ic_shie_1hbydrsmt3sax-fill" data-item-order="0" transform="translate(260, 212)"></g><g id="g-root-tx_privatei_1q5q1x4msy68d-fill" data-item-order="0" transform="translate(230, 110)"><g id="tx_privatei_1q5q1x4msy68d-fill" stroke="none" fill="#484848"><g><text style="font: bold 11.7px Roboto, sans-serif; white-space: pre;" font-weight="bold" font-size="11.7px" font-family="Roboto, sans-serif"><tspan x="11.97" y="28.33" dominant-baseline="ideographic">Private Insurance</tspan></text></g></g></g><g id="g-root-ic_1_8zh2wmtgf0k-fill" data-item-order="0" transform="translate(440, 212)"></g><g id="g-root-tx_informal_9403egmtj8ch-fill" data-item-order="0" transform="translate(44, 98)"><g id="tx_informal_9403egmtj8ch-fill" stroke="none" fill="#484848"><g><text style="font: bold 11.7px Roboto, sans-serif; white-space: pre;" font-weight="bold" font-size="11.7px" font-family="Roboto, sans-serif"><tspan x="16.24" y="28.33" dominant-baseline="ideographic">Informal Supports</tspan></text></g></g></g><g id="g-root-ic_home_147d3comt5822-fill" data-item-order="0" transform="translate(170, 236)"></g><g id="g-root-ic_3_v3lwzcmt3si5-fill" data-item-order="0" transform="translate(350, 236)"></g><g id="g-root-tx_specialp_4hbghkmsy70s-fill" data-item-order="0" transform="translate(488, 350)"><g id="tx_specialp_4hbghkmsy70s-fill" stroke="none" fill="#484848"><g><text style="font: 10px Roboto, sans-serif; white-space: pre;" font-size="10px" font-family="Roboto, sans-serif"><tspan x="11.76" y="21.56" dominant-baseline="ideographic">Special programs offering </tspan><tspan x="27.56" y="33.56" dominant-baseline="ideographic">additional services</tspan></text></g></g></g><g id="g-root-tx_communit_4g2ibcmsy4uj-fill" data-item-order="0" transform="translate(152, 320)"><g id="tx_communit_4g2ibcmsy4uj-fill" stroke="none" fill="#484848"><g><text style="font: bold 11.7px Roboto, sans-serif; white-space: pre;" font-weight="bold" font-size="11.7px" font-family="Roboto, sans-serif"><tspan x="14.25" y="27.33" dominant-baseline="ideographic">Community </tspan><tspan x="16.75" y="41.33" dominant-baseline="ideographic">Resources</tspan></text></g></g></g><g id="g-root-tx_medicare_1cuw0mwmsy4nj-fill" data-item-order="0" transform="translate(338, 320)"><g id="tx_medicare_1cuw0mwmsy4nj-fill" stroke="none" fill="#484848"><g><text style="font: bold 11.7px Roboto, sans-serif; white-space: pre;" font-weight="bold" font-size="11.7px" font-family="Roboto, sans-serif"><tspan x="15.45" y="28.33" dominant-baseline="ideographic">Medicare</tspan></text></g></g></g><g id="g-root-tx_waiverpr_dcygqgmsy683-fill" data-item-order="0" transform="translate(500, 320)"><g id="tx_waiverpr_dcygqgmsy683-fill" stroke="none" fill="#484848"><g><text style="font: bold 11.7px Roboto, sans-serif; white-space: pre;" font-weight="bold" font-size="11.7px" font-family="Roboto, sans-serif"><tspan x="12.9" y="28.33" dominant-baseline="ideographic">Waiver Programs</tspan></text></g></g></g><g id="g-root-tx_localorg_906wmsy5ms-fill" data-item-order="0" transform="translate(134, 362)"><g id="tx_localorg_906wmsy5ms-fill" stroke="none" fill="#484848"><g><text style="font: 10px Roboto, sans-serif; white-space: pre;" font-size="10px" font-family="Roboto, sans-serif"><tspan x="19.16" y="21.56" dominant-baseline="ideographic">Local organizations </tspan><tspan x="16.12" y="33.56" dominant-baseline="ideographic">offering services and </tspan><tspan x="38.69" y="45.56" dominant-baseline="ideographic">assistance</tspan></text></g></g></g><g id="g-root-tx_federalh_1hapircmsy4n4-fill" data-item-order="0" transform="translate(308, 350)"><g id="tx_federalh_1hapircmsy4n4-fill" stroke="none" fill="#484848"><g><text style="font: 10px Roboto, sans-serif; white-space: pre;" font-size="10px" font-family="Roboto, sans-serif"><tspan x="14.51" y="21.56" dominant-baseline="ideographic">Federal health insurance </tspan><tspan x="15.29" y="33.56" dominant-baseline="ideographic">for seniors and disabled</tspan></text></g></g></g><g id="g-root-ic_shar_958yewmt58g2-fill" data-item-order="0" transform="translate(530, 236)"></g><g id="g-root-cp_1_g-1_vbpzy0mt58g5-stroke" data-item-order="-218150" transform="translate(32, 188)"><g id="cp_1_g-1_vbpzy0mt58g5-stroke" fill="none" stroke-linecap="round" stroke-linejoin="round" stroke-miterlimit="4" stroke="#40587e" stroke-width="1"><g><path d="M 10 52C 10 28.804 28.804 10 52 10L 100 10C 116.8266 10 131.3421 19.8951 138.045 34.1838C 133.829 34.5775 129.8212 35.581 126.0602 37.128C 120.8915 28.0904 111.157 22 100 22L 52 22C 35.4315 22 22 35.4315 22 52C 22 68.5685 35.4315 82 52 82C 68.1364 82 84.2902 82.221 100.4249 81.9971C 104.6106 81.9389 108.589 81.0236 112.1927 79.4188C 122.6851 74.7459 130 64.2272 130 52C 130 50.844 129.9346 49.7032 129.8073 48.5813C 133.411 46.9764 137.3894 46.0611 141.5751 46.0029C 141.8551 47.9616 142 49.9639 142 52C 142 69.5541 131.2308 84.5929 115.9388 90.8701C 112.1992 92.4051 108.1892 93.4162 104 93.812C 102.6834 93.9364 101.3491 94 100 94L 52 94C 28.804 94 10 75.196 10 52Z"></path></g></g></g><g id="g-root-cp_2_g-2_vbpzy0mt58g7-stroke" data-item-order="-218146" transform="translate(122, 212)"><g id="cp_2_g-2_vbpzy0mt58g7-stroke" fill="none" stroke-linecap="round" stroke-linejoin="round" stroke-miterlimit="4" stroke="#4371bd" stroke-width="1"><g><path d="M 52 82C 40.8422 82 31.1071 75.9087 25.9388 66.8701C 22.1992 68.4051 18.1892 69.4162 14 69.812L 13.9531 69.812C 20.655 84.103 35.1717 94 52 94L 76 94L 100 94C 116.8283 94 131.345 84.103 138.047 69.812L 138 69.812C 133.8108 69.4162 129.8008 68.4051 126.0612 66.8701C 120.8929 75.9087 111.1578 82 100 82L 76 82L 52 82ZM 10.4249 57.9971C 10.1449 56.0384 10 54.0361 10 52C 10 34.4567 20.7831 19.4121 36.0602 13.128C 39.8212 11.581 43.829 10.5775 48.045 10.1838C 49.347 10.0622 50.6662 10 52 10L 76 10L 100 10C 101.3338 10 102.653 10.0622 103.955 10.1838C 108.171 10.5775 112.1788 11.581 115.9398 13.128C 131.2169 19.4121 142 34.4567 142 52C 142 54.0361 141.8551 56.0384 141.5751 57.9971C 137.3894 57.9389 133.411 57.0236 129.8073 55.4188C 129.9346 54.2968 130 53.156 130 52C 130 39.7728 122.6851 29.2541 112.1927 24.5813C 108.589 22.9764 104.6106 22.0611 100.4249 22.0029C 92.2868 21.89 84.1431 21.9048 76 21.9385C 67.8569 21.9048 59.7132 21.89 51.5751 22.0029C 47.3894 22.0611 43.411 22.9764 39.8073 24.5813C 29.3149 29.2541 22 39.7728 22 52C 22 53.156 22.0654 54.2968 22.1927 55.4188C 18.589 57.0236 14.6106 57.9389 10.4249 57.9971ZM 10.4249 57.9971C 10.2835 57.999 10.1419 58 10 58M 141.5751 57.9971C 141.7165 57.999 141.8581 58 142 58"></path></g></g></g><g id="g-root-cp_3_g-3_qwiywomt562p-stroke" data-item-order="-218142" transform="translate(212, 188)"><g id="cp_3_g-3_qwiywomt562p-stroke" fill="none" stroke-linecap="round" stroke-linejoin="round" stroke-miterlimit="4" stroke="#4f84da" stroke-width="1"><g><path d="M 100 22C 111.1578 22 120.8929 28.0913 126.0612 37.1299C 129.8008 35.5949 133.8108 34.5838 138 34.188L 138.047 34.188C 131.345 19.897 116.8283 10 100 10L 52 10C 35.1717 10 20.655 19.897 13.9531 34.188L 14 34.188C 18.1892 34.5838 22.1992 35.5949 25.9388 37.1299C 31.1072 28.0913 40.8422 22 52 22L 100 22ZM 141.5751 46.003C 141.8551 47.9616 142 49.9639 142 52C 142 69.5433 131.2169 84.5879 115.9398 90.872C 112.1788 92.419 108.171 93.4225 103.955 93.8162C 102.653 93.9378 101.3338 94 100 94L 52 94C 50.6662 94 49.347 93.9378 48.045 93.8162C 43.829 93.4225 39.8211 92.419 36.0602 90.872C 20.7831 84.5879 10 69.5433 10 52C 10 49.9639 10.1449 47.9616 10.4249 46.0029C 14.6106 46.0611 18.589 46.9764 22.1927 48.5812C 22.0654 49.7032 22 50.844 22 52C 22 64.2272 29.3149 74.7459 39.8073 79.4187C 43.411 81.0236 47.3894 81.9389 51.5751 81.997C 59.7132 82.11 67.8569 82.0952 76 82.0615C 84.1431 82.0952 92.2868 82.11 100.4249 81.9971C 104.6106 81.9389 108.589 81.0236 112.1927 79.4188C 122.6851 74.7459 130 64.2272 130 52C 130 50.844 129.9346 49.7032 129.8073 48.5813C 133.411 46.9764 137.3894 46.0611 141.5751 46.003ZM 141.5751 46.003C 141.7165 46.001 141.8581 46 142 46M 10.4249 46.0029C 10.2835 46.001 10.1419 46 10.000001 46"></path></g></g></g><g id="g-root-cp_4_g-4_qwiywomt562r-stroke" data-item-order="-218138" transform="translate(302, 212)"><g id="cp_4_g-4_qwiywomt562r-stroke" fill="none" stroke-linecap="round" stroke-linejoin="round" stroke-miterlimit="4" stroke="#4e8bef" stroke-width="1"><g><path d="M 52 82C 40.8422 82 31.1071 75.9087 25.9388 66.8701C 22.1992 68.4051 18.1892 69.4162 14 69.812L 13.9531 69.812C 20.655 84.103 35.1717 94 52 94L 76 94L 100 94C 116.8283 94 131.345 84.103 138.047 69.812L 138 69.812C 133.8108 69.4162 129.8008 68.4051 126.0612 66.8701C 120.8929 75.9087 111.1578 82 100 82L 76 82L 52 82ZM 10.4249 57.9971C 10.1449 56.0384 10 54.0361 10 52C 10 34.4567 20.7831 19.4121 36.0602 13.128C 39.8212 11.581 43.829 10.5775 48.045 10.1838C 49.347 10.0622 50.6662 10 52 10L 76 10L 100 10C 101.3338 10 102.653 10.0622 103.955 10.1838C 108.171 10.5775 112.1788 11.581 115.9398 13.128C 131.2169 19.4121 142 34.4567 142 52C 142 54.0361 141.8551 56.0384 141.5751 57.9971C 137.3894 57.9389 133.411 57.0236 129.8073 55.4188C 129.9346 54.2968 130 53.156 130 52C 130 39.7728 122.6851 29.2541 112.1927 24.5813C 108.589 22.9764 104.6106 22.0611 100.4249 22.0029C 92.2868 21.89 84.1431 21.9048 76 21.9385C 67.8569 21.9048 59.7132 21.89 51.5751 22.0029C 47.3894 22.0611 43.411 22.9764 39.8073 24.5813C 29.3149 29.2541 22 39.7728 22 52C 22 53.156 22.0654 54.2968 22.1927 55.4188C 18.589 57.0236 14.6106 57.9389 10.4249 57.9971ZM 10.4249 57.9971C 10.2835 57.999 10.1419 58 10 58M 141.5751 57.9971C 141.7165 57.999 141.8581 58 142 58"></path></g></g></g><g id="g-root-cp_5_g-5_i0vynsmt56vh-stroke" data-item-order="-218134" transform="translate(392, 188)"><g id="cp_5_g-5_i0vynsmt56vh-stroke" fill="none" stroke-linecap="round" stroke-linejoin="round" stroke-miterlimit="4" stroke="#5b99ff" stroke-width="1"><g><path d="M 100 22C 111.1578 22 120.8929 28.0913 126.0612 37.1299C 129.8008 35.5949 133.8108 34.5838 138 34.188L 138.047 34.188C 131.345 19.897 116.8283 10 100 10L 52 10C 35.1717 10 20.655 19.897 13.9531 34.188L 14 34.188C 18.1892 34.5838 22.1992 35.5949 25.9388 37.1299C 31.1072 28.0913 40.8422 22 52 22L 100 22ZM 141.5751 46.003C 141.8551 47.9616 142 49.9639 142 52C 142 69.5433 131.2169 84.5879 115.9398 90.872C 112.1788 92.419 108.171 93.4225 103.955 93.8162C 102.653 93.9378 101.3338 94 100 94L 52 94C 50.6662 94 49.347 93.9378 48.045 93.8162C 43.829 93.4225 39.8211 92.419 36.0602 90.872C 20.7831 84.5879 10 69.5433 10 52C 10 49.9639 10.1449 47.9616 10.4249 46.0029C 14.6106 46.0611 18.589 46.9764 22.1927 48.5812C 22.0654 49.7032 22 50.844 22 52C 22 64.2272 29.3149 74.7459 39.8073 79.4187C 43.411 81.0236 47.3894 81.9389 51.5751 81.997C 59.7132 82.11 67.8569 82.0952 76 82.0615C 84.1431 82.0952 92.2868 82.11 100.4249 81.9971C 104.6106 81.9389 108.589 81.0236 112.1927 79.4188C 122.6851 74.7459 130 64.2272 130 52C 130 50.844 129.9346 49.7032 129.8073 48.5813C 133.411 46.9764 137.3894 46.0611 141.5751 46.003ZM 141.5751 46.003C 141.7165 46.001 141.8581 46 142 46M 10.4249 46.0029C 10.2835 46.001 10.1419 46 10.000001 46"></path></g></g></g><g id="g-root-cp_6_g-6_i0vynsmt56vj-stroke" data-item-order="-218130" transform="translate(482, 212)"><g id="cp_6_g-6_i0vynsmt56vj-stroke" fill="none" stroke-linecap="round" stroke-linejoin="round" stroke-miterlimit="4" stroke="#95bdff" stroke-width="1"><g><path d="M 142 52C 142 75.196 123.196 94 100 94L 52 94C 35.1734 94 20.6579 84.1049 13.955 69.8162C 18.171 69.4225 22.1788 68.419 25.9398 66.872C 31.1085 75.9096 40.843 82 52 82L 100 82C 116.5685 82 130 68.5685 130 52C 130 35.4315 116.5685 22 100 22C 83.8636 22 67.7098 21.779 51.5751 22.0029C 47.3894 22.0611 43.411 22.9764 39.8073 24.5812C 29.3149 29.2541 22 39.7728 22 52C 22 53.156 22.0654 54.2968 22.1927 55.4187C 18.589 57.0236 14.6106 57.9389 10.4249 57.9971C 10.1449 56.0384 10 54.0361 10 52C 10 34.4459 20.7692 19.4071 36.0612 13.1299C 39.8008 11.5949 43.8108 10.5838 48 10.188C 49.3166 10.0636 50.6509 10 52 10L 100 10C 123.196 10 142 28.804 142 52Z"></path></g></g></g><g id="g-root-tx_statefed_13z90e0msy682-stroke" data-item-order="0" transform="translate(398, 128)"></g><g id="g-root-tx_coverage_1lpwjsomsy70m-stroke" data-item-order="0" transform="translate(224, 140)"></g><g id="g-root-tx_familyan_i0w1tkmtj8y2-stroke" data-item-order="0" transform="translate(38, 128)"></g><g id="g-root-ic_3_1cw4vncmtf1mz-stroke" data-item-order="0" transform="translate(80, 212)"><g id="ic_3_1cw4vncmtf1mz-stroke" fill="none" stroke-linecap="round" stroke-linejoin="round" stroke-miterlimit="4" stroke="#484848" stroke-width="1"><g><path d="M 24.625 14.125C 24.625 15.988961 26.13604 17.5 28 17.5C 29.86396 17.5 31.375 15.988961 31.375 14.125C 31.375 12.261039 29.86396 10.75 28 10.75C 26.13604 10.75 24.625 12.261039 24.625 14.125M 34.75 24.25C 33.949986 21.177057 31.175375 19.032307 28 19.032307C 24.824625 19.032307 22.050014 21.177057 21.25 24.25ZM 14.125 35.125C 14.125 36.98896 15.636039 38.5 17.5 38.5C 19.36396 38.5 20.875 36.98896 20.875 35.125C 20.875 33.26104 19.36396 31.75 17.5 31.75C 15.636039 31.75 14.125 33.26104 14.125 35.125M 24.25 45.25C 23.449986 42.177059 20.675375 40.032307 17.5 40.032307C 14.324625 40.032307 11.550014 42.177059 10.75 45.25ZM 35.125 35.125C 35.125 36.98896 36.63604 38.5 38.5 38.5C 40.36396 38.5 41.875 36.98896 41.875 35.125C 41.875 33.26104 40.36396 31.75 38.5 31.75C 36.63604 31.75 35.125 33.26104 35.125 35.125M 45.25 45.25C 44.449986 42.177059 41.675377 40.032307 38.5 40.032307C 35.324623 40.032307 32.550018 42.177059 31.750002 45.25ZM 32.5 38.380001C 29.613609 39.547604 26.386391 39.547604 23.5 38.380001M 34.75 17.334999C 38.477177 19.869066 40.470139 24.27791 39.91 28.75M 21.25 17.334999C 17.522823 19.869066 15.529862 24.27791 16.09 28.75"></path></g></g></g><g id="g-root-tx_medicaid_18f2iigmsy5ft-stroke" data-item-order="0" transform="translate(428, 98)"></g><g id="g-root-ic_shie_1hbydrsmt3sax-stroke" data-item-order="0" transform="translate(260, 212)"><g id="ic_shie_1hbydrsmt3sax-stroke" fill="none" stroke-linecap="round" stroke-linejoin="round" stroke-miterlimit="4" stroke="#484848" stroke-width="1"><g><path d="M 39.271 16.719999L 10.771 16.719999M 24.271 30.219999L 13.021 30.219999C 11.778359 30.220001 10.771 29.212643 10.771 27.970001L 10.771 12.97C 10.771 11.72736 11.778359 10.72 13.021 10.72L 37.021 10.72C 38.263641 10.72 39.271 11.72736 39.271 12.97L 39.271 24.219999M 36.271 21.219999L 31.771 21.219999M 18.271 24.219999L 13.771 24.219999M 21.271 21.219999L 13.771 21.219999M 36.271 30.219999L 36.271 39.220001M 40.771 34.720001L 31.771 34.720001M 37.074997 45.065502L 37.904503 44.7505C 41.849499 43.2505 45.271 39.4645 45.271 35.2435L 45.271 30.153999C 45.271927 29.530363 44.902386 28.965736 44.330498 28.716999C 41.741402 27.749746 39.003262 27.242119 36.239502 27.217001C 33.496548 27.240467 30.779301 27.748268 28.213001 28.716999C 27.640789 28.965595 27.270723 29.530123 27.271 30.153999L 27.271 35.2435C 27.271 39.4645 30.628 43.247501 34.572998 44.7505L 35.4025 45.065502C 35.941067 45.270973 36.53643 45.270973 37.074997 45.065498Z"></path></g></g></g><g id="g-root-tx_privatei_1q5q1x4msy68d-stroke" data-item-order="0" transform="translate(230, 110)"></g><g id="g-root-ic_1_8zh2wmtgf0k-stroke" data-item-order="0" transform="translate(440, 212)"><g id="ic_1_8zh2wmtgf0k-stroke" fill="none" stroke-linecap="round" stroke-linejoin="round" stroke-miterlimit="4" stroke="#484848" stroke-width="1"><g><path d="M 10 10M 39.886902 29.53735L 34.198902 29.53735L 34.198902 34.368252L 29.368149 34.368252L 29.368149 40.056252L 34.198902 40.056252L 34.198902 44.886848L 39.886902 44.886848L 39.886902 40.056252L 44.717651 40.056252L 44.717651 34.368252L 39.886902 34.368252L 39.886902 29.53735ZM 24.829765 40.662102L 13.53247 40.662102C 12.93574 40.662102 12.36343 40.425098 11.94148 40.003151C 11.51953 39.5812 11.28247 39.008797 11.28247 38.412102L 11.28247 13.662115C 11.28247 13.065371 11.51953 12.493075 11.94148 12.071125C 12.36343 11.64916 12.93574 11.412109 13.53247 11.412109L 29.476 11.412109C 30.07225 11.412236 30.644199 11.649085 31.066 12.070615L 35.374001 16.378614C 35.795502 16.8004 36.032349 17.37229 36.032501 17.968615L 36.032501 24.980125M 17.364325 29.537201C 17.364325 27.9946 17.977119 26.51515 19.06789 25.424351C 20.158674 24.333626 21.638081 23.720829 23.180679 23.720829C 24.723265 23.720829 26.2027 24.333626 27.293501 25.424351C 28.3843 26.51515 28.997049 27.9946 28.997049 29.537201L 17.364325 29.537201ZM 23.180799 23.720726C 25.32235 23.720726 27.0583 21.984671 27.0583 19.843149C 27.0583 17.70163 25.32235 15.965575 23.180799 15.965575C 21.039265 15.965575 19.303225 17.70163 19.303225 19.843149C 19.303225 21.984671 21.039265 23.720726 23.180799 23.720726Z"></path></g></g></g><g id="g-root-tx_informal_9403egmtj8ch-stroke" data-item-order="0" transform="translate(44, 98)"></g><g id="g-root-ic_home_147d3comt5822-stroke" data-item-order="0" transform="translate(170, 236)"><g id="ic_home_147d3comt5822-stroke" fill="none" stroke-linecap="round" stroke-linejoin="round" stroke-miterlimit="4" stroke="#484848" stroke-width="1"><g><path d="M 37.375 25.376501C 37.375 27.240461 38.88604 28.751501 40.75 28.751501C 42.61396 28.751501 44.125 27.240461 44.125 25.376501C 44.125 23.512539 42.61396 22.001501 40.75 22.001501C 38.88604 22.001501 37.375 23.512539 37.375 25.376501ZM 40.75 30.25C 38.264717 30.25 36.25 32.264721 36.25 34.75L 36.25 38.5L 38.5 38.5L 39.25 45.25L 42.25 45.25L 43 38.5L 45.25 38.5L 45.25 34.75C 45.25 32.264721 43.235283 30.25 40.75 30.25ZM 11.875 25.376501C 11.875 27.240461 13.386039 28.751501 15.25 28.751501C 17.11396 28.751501 18.625 27.240461 18.625 25.376501C 18.625 23.512539 17.11396 22.001501 15.25 22.001501C 13.386039 22.001501 11.875 23.512539 11.875 25.376501ZM 15.25 30.25C 12.764719 30.25 10.75 32.264721 10.75 34.75L 10.75 38.5L 13 38.5L 13.75 45.25L 16.75 45.25L 17.5 38.5L 19.75 38.5L 19.75 34.75C 19.75 32.264721 17.735283 30.25 15.25 30.25ZM 23.875 22.375C 23.875 24.653175 25.721827 26.5 28 26.5C 30.278175 26.5 32.125 24.653175 32.125 22.375C 32.125 20.096827 30.278175 18.25 28 18.25C 25.721827 18.25 23.875 20.096827 23.875 22.375ZM 33.25 33.25C 33.25 30.350506 30.899494 28.000002 28.000002 28.000002C 25.100506 28.000002 22.750002 30.350506 22.750002 33.25L 22.75 37.75L 25.1245 37.75L 25.75 45.25L 30.25 45.25L 30.8755 37.75L 33.25 37.75ZM 10.75 19.75L 27.3055 10.9195C 27.740606 10.692217 28.259394 10.692217 28.6945 10.9195L 45.25 19.75"></path></g></g></g><g id="g-root-ic_3_v3lwzcmt3si5-stroke" data-item-order="0" transform="translate(350, 236)"><g id="ic_3_v3lwzcmt3si5-stroke" fill="none" stroke-linecap="round" stroke-linejoin="round" stroke-miterlimit="4" stroke="#484848" stroke-width="1"><g><path d="M 39.25 28.75L 43.75 28.75C 44.578426 28.75 45.25 29.421572 45.25 30.25L 45.25 40C 45.25 40.414215 44.914215 40.75 44.5 40.75L 39.25 40.75M 16.75 40.75L 11.5 40.75C 11.085787 40.75 10.75 40.414215 10.75 40L 10.75 30.25C 10.75 29.421572 11.421573 28.75 12.25 28.75L 16.75 28.75M 39.25 44.5C 39.25 44.914215 38.914215 45.25 38.5 45.25L 17.5 45.25C 17.085787 45.25 16.75 44.914215 16.75 44.5L 16.75 28.75L 27.443501 24.473499C 27.800531 24.329525 28.199467 24.329525 28.556499 24.473499L 39.25 28.75ZM 18.25 28.150002L 18.25 22.75L 37.75 22.75L 37.75 28.150002M 18.25 22.75C 18.25 17.365225 22.615225 13 28 13C 33.384777 13 37.75 17.365225 37.75 22.75M 28 13L 28 10.75M 21.25 42.25L 21.25 31.75M 25.75 42.25L 25.75 31.75M 30.25 42.25L 30.25 31.75M 34.75 42.25L 34.75 31.75M 16.75 31.75L 39.25 31.75M 16.75 42.25L 39.25 42.25"></path></g></g></g><g id="g-root-tx_specialp_4hbghkmsy70s-stroke" data-item-order="0" transform="translate(488, 350)"></g><g id="g-root-tx_communit_4g2ibcmsy4uj-stroke" data-item-order="0" transform="translate(152, 320)"></g><g id="g-root-tx_medicare_1cuw0mwmsy4nj-stroke" data-item-order="0" transform="translate(338, 320)"></g><g id="g-root-tx_waiverpr_dcygqgmsy683-stroke" data-item-order="0" transform="translate(500, 320)"></g><g id="g-root-tx_localorg_906wmsy5ms-stroke" data-item-order="0" transform="translate(134, 362)"></g><g id="g-root-tx_federalh_1hapircmsy4n4-stroke" data-item-order="0" transform="translate(308, 350)"></g><g id="g-root-ic_shar_958yewmt58g2-stroke" data-item-order="0" transform="translate(530, 236)"><g id="ic_shar_958yewmt58g2-stroke" fill="none" stroke-linecap="round" stroke-linejoin="round" stroke-miterlimit="4" stroke="#484848" stroke-width="1"><g><path d="M 33.185799 30.647949L 23.433115 21.814075C 18.132746 16.51372 25.924301 6.33703 33.185799 14.570245C 40.4473 6.33703 48.203499 16.549046 42.938351 21.814075L 33.185799 30.647949ZM 10 10M 11.449281 38.326752L 17.743496 43.571949C 18.669266 44.343399 19.836205 44.7658 21.041275 44.7658L 37.635101 44.7658C 38.820549 44.7658 39.781448 43.804901 39.781448 42.61945C 39.781448 40.248699 37.859501 38.326752 35.48875 38.326752L 23.952265 38.326752M 10 10M 19.17625 35.7505L 21.107996 37.682198C 22.174856 38.749149 23.904594 38.749149 24.97147 37.682198C 26.0383 36.615402 26.0383 34.885601 24.97147 33.818802L 21.972866 30.82015C 21.006805 29.854 19.696541 29.3113 18.330324 29.3113L 11.449281 29.3113M 10 10M 34.6516 17.083735L 31.705601 17.083735L 31.705601 19.585871L 29.2036 19.585871L 29.2036 22.531916L 31.705601 22.531916L 31.705601 25.033901L 34.6516 25.033901L 34.6516 22.531916L 37.153751 22.531916L 37.153751 19.585871L 34.6516 19.585871L 34.6516 17.083735Z"></path></g></g></g></g></g></svg>