<?xml version="1.0" encoding="utf-8" standalone="yes"?>
<!DOCTYPE svg PUBLIC "-//W3C//DTD SVG 1.1//EN" "http://www.w3.org/Graphics/SVG/1.1/DTD/svg11.dtd">
<svg version="1.1" xmlns="http://www.w3.org/2000/svg" xmlns:xlink="http://www.w3.org/1999/xlink" width="7.7777777in" height="6.9583335in" class="slides-canvas" viewBox="0 0 560 501">
  <g text-rendering="geometricPrecision" transform="scale(1, 1)">
    <g transform="matrix(1, 0, 0, 1, -398, 0)">
      <path fill="#D6EEFB" d="M397.67 61.63C397.67 56.62 401.79 52.5 406.8 52.5L947.71 52.5 947.71 52.5C952.72 52.5 956.84 56.62 956.84 61.63L956.84 98.14 956.84 98.14C956.84 103.15 952.72 107.27 947.71 107.27L406.8 107.27C401.79 107.27 397.67 103.15 397.67 98.14z" />
      <path stroke-linecap="round" stroke-width="1.25" stroke="#FFFFFF" fill="none" d="M397.67 61.63C397.67 56.62 401.79 52.5 406.8 52.5L947.71 52.5 947.71 52.5C952.72 52.5 956.84 56.62 956.84 61.63L956.84 98.14 956.84 98.14C956.84 103.15 952.72 107.27 947.71 107.27L406.8 107.27C401.79 107.27 397.67 103.15 397.67 98.14z" />
    </g>
    <g transform="matrix(1, 0, 0, 1, 11.045349, 63.874622)"><text font-family="DejaVu Sans" font-style="normal" font-weight="normal" font-stretch="normal" font-size="21.75pt" fill="#000000" x="0" y="24.972872"><tspan x="0.5544732" y="25.527344" id="tp_0_shadow" fill="#000000" fill-opacity="0.27">American Psychiatric Association</tspan><tspan x="0" y="24.972872" id="tp_0">American Psychiatric Association</tspan></text></g>
    <g transform="matrix(1, 0, 0, 1, 17.425385, 109.66992)"><text font-family="DejaVu Sans" font-style="normal" font-weight="normal" font-stretch="normal" font-size="18.375pt" fill="#000000" x="18" y="124.34859"><tspan x="0" y="20.66859">•</tspan><tspan x="18.05" y="20.66859" font-size="18pt">A dangerous, sudden, overwhelming</tspan><tspan xml:space="preserve" x="458.02264" y="20.66859" font-size="18pt"> </tspan><tspan x="18" y="46.588593" font-size="18pt">event which causes damage, loss of life,</tspan><tspan xml:space="preserve" x="504.375" y="46.588593" font-size="18pt"> </tspan><tspan x="18" y="72.50859" font-size="18pt">or threatened loss of life which is usually</tspan><tspan xml:space="preserve" x="508.97266" y="72.50859" font-size="18pt"> </tspan><tspan x="18" y="98.42859" font-size="18pt">experienced with fear, terror or</tspan><tspan xml:space="preserve" x="395.1289" y="98.42859" font-size="18pt"> </tspan><tspan x="18" y="124.34859" font-size="18pt">helplessness</tspan></text></g>
    <g transform="matrix(1, 0, 0, 1, -398, 0)">
      <path fill="#EDE0F9" d="M397.67 227.48C397.67 222.47 401.79 218.35 406.8 218.35L947.71 218.35 947.71 218.35C952.72 218.35 956.84 222.47 956.84 227.48L956.84 263.99 956.84 263.99C956.84 269 952.72 273.12 947.71 273.12L406.8 273.12C401.79 273.12 397.67 269 397.67 263.99z" />
      <path stroke-linecap="round" stroke-width="1.25" stroke="#FFFFFF" fill="none" d="M397.67 227.48C397.67 222.47 401.79 218.35 406.8 218.35L947.71 218.35 947.71 218.35C952.72 218.35 956.84 222.47 956.84 227.48L956.84 263.99 956.84 263.99C956.84 269 952.72 273.12 947.71 273.12L406.8 273.12C401.79 273.12 397.67 269 397.67 263.99z" />
    </g>
    <g transform="matrix(1, 0, 0, 1, 11.045349, 229.72266)"><text font-family="DejaVu Sans" font-style="normal" font-weight="normal" font-stretch="normal" font-size="21.75pt" fill="#000000" x="0" y="24.972872"><tspan x="0.5544732" y="25.527344" id="tp_1_shadow" fill="#000000" fill-opacity="0.27">R Welton Screening Question</tspan><tspan x="0" y="24.972872" id="tp_1">R Welton Screening Question</tspan></text></g>
    <g transform="matrix(1, 0, 0, 1, 17.425385, 275.51794)"><text font-family="DejaVu Sans" font-style="normal" font-weight="normal" font-stretch="normal" font-size="18.375pt" fill="#000000" x="18" y="46.588593"><tspan x="0" y="20.66859">•</tspan><tspan x="18.05" y="20.66859" font-size="18pt">Have you ever experienced something so</tspan><tspan xml:space="preserve" x="518.1281" y="20.66859" font-size="18pt"> </tspan><tspan x="18" y="46.588593" font-size="18pt">bad that it changed your life?</tspan></text></g>
    <g transform="matrix(1, 0, 0, 1, -398, 0)">
      <path fill="#F9EBD8" d="M397.67 353.73C397.67 348.73 401.79 344.61 406.8 344.61L947.71 344.61 947.71 344.61C952.72 344.61 956.84 348.73 956.84 353.73L956.84 390.25 956.84 390.25C956.84 395.25 952.72 399.37 947.71 399.37L406.8 399.37C401.79 399.37 397.67 395.25 397.67 390.25z" />
      <path stroke-linecap="round" stroke-width="1.25" stroke="#FFFFFF" fill="none" d="M397.67 353.73C397.67 348.73 401.79 344.61 406.8 344.61L947.71 344.61 947.71 344.61C952.72 344.61 956.84 348.73 956.84 353.73L956.84 390.25 956.84 390.25C956.84 395.25 952.72 399.37 947.71 399.37L406.8 399.37C401.79 399.37 397.67 395.25 397.67 390.25z" />
    </g>
    <g transform="matrix(1, 0, 0, 1, 11.045349, 355.97916)"><text font-family="DejaVu Sans" font-style="normal" font-weight="normal" font-stretch="normal" font-size="21.75pt" fill="#000000" x="0" y="40.632874"><tspan x="0.5544732" y="9.867344" id="tp_2_shadow" fill="#000000" fill-opacity="0.27">Can be a single event or an ongoing</tspan><tspan x="0" y="9.312872" id="tp_2">Can be a single event or an ongoing</tspan><tspan xml:space="preserve" x="526.25" y="9.312872"> </tspan><tspan x="0.5544732" y="41.187344" id="tp_3_shadow" fill="#000000" fill-opacity="0.27">pattern</tspan><tspan x="0" y="40.632874" id="tp_3">pattern</tspan></text></g>
    <g transform="matrix(1, 0, 0, 1, -398, 0)">
      <path fill="#F7DBD8" d="M397.67 451.25C397.67 446.24 401.79 442.12 406.8 442.12L947.71 442.12 947.71 442.12C952.72 442.12 956.84 446.24 956.84 451.25L956.84 487.76 956.84 487.76C956.84 492.77 952.72 496.89 947.71 496.89L406.8 496.89C401.79 496.89 397.67 492.77 397.67 487.76z" />
      <path stroke-linecap="round" stroke-width="1.25" stroke="#FFFFFF" fill="none" d="M397.67 451.25C397.67 446.24 401.79 442.12 406.8 442.12L947.71 442.12 947.71 442.12C952.72 442.12 956.84 446.24 956.84 451.25L956.84 487.76 956.84 487.76C956.84 492.77 952.72 496.89 947.71 496.89L406.8 496.89C401.79 496.89 397.67 492.77 397.67 487.76z" />
    </g>
    <g transform="matrix(1, 0, 0, 1, 11.045349, 453.49765)"><text font-family="DejaVu Sans" font-style="normal" font-weight="normal" font-stretch="normal" font-size="21.75pt" fill="#000000" x="0" y="40.632874"><tspan x="0.5544732" y="9.867344" id="tp_4_shadow" fill="#000000" fill-opacity="0.27">Can occur in childhood or adulthood</tspan><tspan x="0" y="9.312872" id="tp_4">Can occur in childhood or adulthood</tspan><tspan xml:space="preserve" x="525.75" y="9.312872"> </tspan><tspan x="0.5544732" y="41.187344" id="tp_5_shadow" fill="#000000" fill-opacity="0.27">or both</tspan><tspan x="0" y="40.632874" id="tp_5">or both</tspan></text></g>
  </g>
</svg>