<svg xmlns="http://www.w3.org/2000/svg" xmlns:xlink="http://www.w3.org/1999/xlink" width="816" zoomAndPan="magnify" viewBox="0 0 612 791.999994" height="1056" preserveAspectRatio="xMidYMid meet" version="1.2"><defs><clipPath id="54d29f885b"><path d="M 24.78125 21.640625 L 273.03125 21.640625 L 273.03125 269.890625 L 24.78125 269.890625 Z M 24.78125 21.640625 "/></clipPath><clipPath id="7491bbe4ba"><path d="M 324.253906 51.21875 L 568.753906 51.21875 L 568.753906 240.96875 L 324.253906 240.96875 Z M 324.253906 51.21875 "/></clipPath><clipPath id="f9a54841cd"><path d="M 28.546875 299.019531 L 271 299.019531 L 271 540.519531 L 28.546875 540.519531 Z M 28.546875 299.019531 "/></clipPath><clipPath id="24ccb07000"><path d="M 309.460938 286.699219 L 553.960938 286.699219 L 553.960938 531.199219 L 309.460938 531.199219 Z M 309.460938 286.699219 "/></clipPath><clipPath id="ce8b27bfcc"><path d="M 29 595.316406 L 273.5 595.316406 L 273.5 763.316406 L 29 763.316406 Z M 29 595.316406 "/></clipPath><clipPath id="96c6f25dda"><path d="M 29 622 L 273.5 622 L 273.5 628 L 29 628 Z M 29 622 "/></clipPath><clipPath id="437bd15d54"><path d="M 320.761719 589.878906 L 565.261719 589.878906 L 565.261719 759.378906 L 320.761719 759.378906 Z M 320.761719 589.878906 "/></clipPath></defs><g id="ea1be2755e"><rect x="0" width="612" y="0" height="791.999994" style="fill:#ffffff;fill-opacity:1;stroke:none;"/><rect x="0" width="612" y="0" height="791.999994" style="fill:#ffffff;fill-opacity:1;stroke:none;"/><path style=" stroke:none;fill-rule:nonzero;fill:#000000;fill-opacity:1;" d="M 127.574219 171.15625 C 134.394531 174.507812 141.574219 176.207031 148.90625 176.207031 C 156.238281 176.207031 163.417969 174.507812 170.238281 171.15625 C 190.992188 160.960938 205.488281 136.476562 205.488281 111.613281 C 205.488281 78.289062 180.105469 51.179688 148.90625 51.179688 C 117.707031 51.179688 92.324219 78.289062 92.324219 111.613281 C 92.324219 136.476562 106.820312 160.960938 127.574219 171.15625 Z M 148.90625 60.726562 C 174.839844 60.726562 195.9375 83.554688 195.9375 111.613281 C 195.9375 132.972656 183.640625 153.933594 166.03125 162.585938 C 155.023438 167.988281 142.785156 167.988281 131.785156 162.585938 C 114.171875 153.933594 101.871094 132.972656 101.871094 111.613281 C 101.871094 83.554688 122.972656 60.726562 148.90625 60.726562 Z M 148.90625 60.726562 "/><g clip-rule="nonzero" clip-path="url(#54d29f885b)"><path style=" stroke:none;fill-rule:nonzero;fill:#000000;fill-opacity:1;" d="M 268.257812 21.640625 L 29.554688 21.640625 C 26.917969 21.640625 24.78125 23.777344 24.78125 26.414062 L 24.78125 265.117188 C 24.78125 267.753906 26.917969 269.890625 29.554688 269.890625 L 268.257812 269.890625 C 270.894531 269.890625 273.03125 267.753906 273.03125 265.117188 L 273.03125 26.414062 C 273.03125 23.777344 270.894531 21.640625 268.257812 21.640625 Z M 242.058594 260.34375 L 55.75 260.34375 L 55.75 250.316406 C 55.75 229.996094 68.539062 211.589844 87.578125 204.515625 L 128.121094 189.414062 C 141.550781 194.980469 156.261719 194.980469 169.691406 189.414062 L 210.238281 204.515625 C 229.273438 211.589844 242.058594 229.996094 242.058594 250.316406 Z M 263.484375 260.34375 L 251.609375 260.34375 L 251.609375 250.316406 C 251.609375 226.027344 236.320312 204.023438 213.566406 195.566406 L 171.21875 179.796875 C 170.039062 179.355469 168.726562 179.398438 167.574219 179.925781 C 155.523438 185.414062 142.289062 185.414062 130.238281 179.925781 C 129.085938 179.398438 127.773438 179.355469 126.59375 179.796875 L 84.246094 195.566406 C 61.492188 204.023438 46.203125 226.027344 46.203125 250.316406 L 46.203125 260.34375 L 34.328125 260.34375 L 34.328125 31.191406 L 263.484375 31.191406 Z M 263.484375 260.34375 "/></g><g clip-rule="nonzero" clip-path="url(#7491bbe4ba)"><path style=" stroke:none;fill-rule:nonzero;fill:#100f0d;fill-opacity:1;" d="M 557.585938 198.859375 C 557.585938 215.894531 543.769531 229.753906 526.78125 229.753906 L 366.277344 229.753906 C 349.292969 229.753906 335.480469 215.894531 335.480469 198.859375 L 335.480469 93.386719 C 335.480469 76.347656 349.292969 62.488281 366.277344 62.488281 L 526.78125 62.488281 C 543.769531 62.488281 557.585938 76.347656 557.585938 93.386719 Z M 526.78125 51.257812 L 366.277344 51.257812 C 343.117188 51.257812 324.269531 70.15625 324.269531 93.386719 L 324.269531 198.859375 C 324.269531 222.085938 343.117188 240.984375 366.277344 240.984375 L 526.78125 240.984375 C 549.945312 240.984375 568.789062 222.085938 568.789062 198.859375 L 568.789062 93.386719 C 568.789062 70.15625 549.945312 51.257812 526.78125 51.257812 "/></g><path style=" stroke:none;fill-rule:nonzero;fill:#100f0d;fill-opacity:1;" d="M 466.738281 116.328125 C 466.738281 105.191406 475.777344 96.128906 486.878906 96.128906 C 497.984375 96.128906 507.011719 105.191406 507.011719 116.328125 C 507.011719 127.46875 497.984375 136.53125 486.878906 136.53125 C 475.777344 136.53125 466.738281 127.46875 466.738281 116.328125 Z M 503.949219 145.238281 L 499.15625 145.238281 C 510.351562 140.441406 518.21875 129.292969 518.21875 116.328125 C 518.21875 98.996094 504.160156 84.898438 486.878906 84.898438 C 469.597656 84.898438 455.53125 98.996094 455.53125 116.328125 C 455.53125 129.292969 463.40625 140.441406 474.601562 145.238281 L 469.800781 145.238281 C 451.492188 145.238281 436.601562 160.175781 436.601562 178.539062 L 436.601562 201.734375 C 436.601562 204.835938 439.109375 207.347656 442.207031 207.347656 C 445.304688 207.347656 447.808594 204.835938 447.808594 201.734375 L 447.808594 178.539062 C 447.808594 166.367188 457.667969 156.472656 469.800781 156.472656 L 503.949219 156.472656 C 516.082031 156.472656 525.949219 166.367188 525.949219 178.539062 L 525.949219 199.199219 C 525.949219 202.296875 528.457031 204.8125 531.554688 204.8125 C 534.648438 204.8125 537.15625 202.296875 537.15625 199.199219 L 537.15625 178.539062 C 537.15625 160.175781 522.257812 145.238281 503.949219 145.238281 "/><path style=" stroke:none;fill-rule:nonzero;fill:#100f0d;fill-opacity:1;" d="M 410.042969 101.429688 L 361.515625 101.429688 C 358.421875 101.429688 355.914062 103.945312 355.914062 107.042969 C 355.914062 110.144531 358.421875 112.660156 361.515625 112.660156 L 410.042969 112.660156 C 413.136719 112.660156 415.644531 110.144531 415.644531 107.042969 C 415.644531 103.945312 413.136719 101.429688 410.042969 101.429688 "/><path style=" stroke:none;fill-rule:nonzero;fill:#100f0d;fill-opacity:1;" d="M 410.042969 140.503906 L 361.515625 140.503906 C 358.421875 140.503906 355.914062 143.019531 355.914062 146.121094 C 355.914062 149.222656 358.421875 151.738281 361.515625 151.738281 L 410.042969 151.738281 C 413.136719 151.738281 415.644531 149.222656 415.644531 146.121094 C 415.644531 143.019531 413.136719 140.503906 410.042969 140.503906 "/><path style=" stroke:none;fill-rule:nonzero;fill:#100f0d;fill-opacity:1;" d="M 410.042969 179.585938 L 361.515625 179.585938 C 358.421875 179.585938 355.914062 182.101562 355.914062 185.203125 C 355.914062 188.304688 358.421875 190.820312 361.515625 190.820312 L 410.042969 190.820312 C 413.136719 190.820312 415.644531 188.304688 415.644531 185.203125 C 415.644531 182.101562 413.136719 179.585938 410.042969 179.585938 "/><g clip-rule="nonzero" clip-path="url(#f9a54841cd)"><path style=" stroke:none;fill-rule:nonzero;fill:#333333;fill-opacity:1;" d="M 114.214844 319.175781 C 78.109375 319.175781 48.75 348.550781 48.75 384.671875 C 48.75 420.792969 78.109375 450.167969 114.214844 450.167969 C 150.320312 450.167969 179.679688 420.792969 179.679688 384.671875 C 179.679688 348.550781 150.320312 319.175781 114.214844 319.175781 Z M 114.214844 440.042969 C 83.671875 440.042969 58.824219 415.183594 58.824219 384.625 C 58.824219 354.070312 83.714844 329.257812 114.214844 329.257812 C 144.710938 329.257812 169.601562 354.113281 169.601562 384.671875 C 169.601562 415.230469 144.757812 440.042969 114.214844 440.042969 Z M 261.28125 489.390625 L 220.980469 449.074219 C 213.867188 441.957031 203.519531 440.222656 193.902344 442.230469 C 193.71875 441.957031 193.535156 441.730469 193.308594 441.5 L 184.828125 433.019531 C 194.3125 419.242188 199.828125 402.597656 199.828125 384.625 C 199.828125 337.421875 161.441406 299.019531 114.214844 299.019531 C 66.984375 299.019531 28.648438 337.421875 28.648438 384.625 C 28.648438 431.832031 67.03125 470.234375 114.214844 470.234375 C 130.855469 470.234375 146.398438 465.445312 159.527344 457.234375 L 169.96875 467.679688 C 169.878906 468.546875 169.878906 469.414062 169.878906 470.28125 C 169.878906 478.261719 172.976562 485.789062 178.628906 491.488281 L 218.882812 531.761719 C 224.71875 537.597656 232.378906 540.519531 240.082031 540.519531 C 247.785156 540.519531 255.445312 537.597656 261.28125 531.761719 C 272.949219 520.085938 272.949219 501.066406 261.28125 489.390625 Z M 38.722656 384.625 C 38.722656 342.984375 72.59375 309.097656 114.214844 309.097656 C 155.835938 309.097656 189.707031 342.984375 189.707031 384.625 C 189.707031 426.269531 155.835938 460.15625 114.214844 460.15625 C 72.59375 460.199219 38.722656 426.3125 38.722656 384.625 Z M 167.871094 451.308594 C 171.746094 448.207031 175.300781 444.738281 178.585938 441 L 183.597656 446.015625 C 182.003906 446.835938 179.90625 448.160156 177.808594 450.257812 C 175.4375 452.585938 173.980469 454.910156 173.113281 456.597656 C 171.382812 454.863281 169.601562 453.085938 167.871094 451.308594 Z M 254.167969 524.648438 C 246.417969 532.398438 233.789062 532.398438 226.039062 524.648438 L 185.785156 484.375 C 185.605469 484.191406 185.421875 484.007812 185.238281 483.828125 C 175.210938 472.972656 181.226562 455.457031 195.632812 452.21875 C 196.773438 451.945312 197.914062 451.761719 199.054688 451.671875 C 205.117188 451.125 210.40625 452.765625 213.914062 456.277344 L 254.167969 496.550781 C 261.917969 504.257812 261.917969 516.894531 254.167969 524.648438 Z M 130.125 379.109375 C 135.777344 374.5 139.378906 367.476562 139.378906 359.585938 C 139.378906 345.722656 128.074219 334.410156 114.214844 334.410156 C 100.355469 334.410156 89.050781 345.722656 89.050781 359.585938 C 89.050781 367.433594 92.652344 374.457031 98.304688 379.109375 C 89.734375 384.445312 83.988281 393.976562 83.988281 404.785156 L 83.988281 419.882812 C 83.988281 422.664062 86.222656 424.898438 89.003906 424.898438 L 139.425781 424.898438 C 142.207031 424.898438 144.4375 422.664062 144.4375 419.882812 L 144.4375 404.785156 C 144.4375 393.976562 138.695312 384.445312 130.125 379.109375 Z M 99.125 359.585938 C 99.125 351.242188 105.917969 344.492188 114.214844 344.492188 C 122.558594 344.492188 129.304688 351.285156 129.304688 359.585938 C 129.304688 367.339844 123.421875 373.773438 115.855469 374.59375 C 115.308594 374.546875 114.761719 374.546875 114.214844 374.546875 C 113.667969 374.546875 113.121094 374.546875 112.574219 374.59375 C 105.003906 373.773438 99.125 367.386719 99.125 359.585938 Z M 134.363281 414.867188 L 94.109375 414.867188 L 94.109375 404.785156 C 94.109375 394.25 102.226562 385.585938 112.574219 384.71875 C 113.121094 384.761719 113.714844 384.761719 114.261719 384.761719 C 114.808594 384.761719 115.398438 384.71875 115.945312 384.71875 C 126.25 385.585938 134.410156 394.25 134.410156 404.785156 L 134.410156 414.867188 Z M 134.363281 414.867188 "/></g><path style=" stroke:none;fill-rule:nonzero;fill:#cbd5e1;fill-opacity:1;" d="M 547.527344 318.871094 L 547.527344 499.027344 C 547.527344 513.242188 536.003906 524.765625 521.789062 524.765625 L 341.632812 524.765625 C 327.417969 524.765625 315.894531 513.242188 315.894531 499.027344 L 315.894531 318.871094 C 315.894531 304.65625 327.417969 293.132812 341.632812 293.132812 L 521.789062 293.132812 C 536.003906 293.132812 547.527344 304.65625 547.527344 318.871094 Z M 547.527344 318.871094 "/><path style=" stroke:none;fill-rule:nonzero;fill:#ffffff;fill-opacity:1;" d="M 393.105469 408.949219 C 393.105469 387.628906 410.390625 370.34375 431.710938 370.34375 C 453.03125 370.34375 470.316406 387.628906 470.316406 408.949219 C 470.316406 430.269531 453.03125 447.554688 431.710938 447.554688 C 410.390625 447.554688 393.105469 430.269531 393.105469 408.949219 Z M 457.449219 473.289062 L 405.972656 473.289062 C 377.542969 473.289062 354.5 496.335938 354.5 524.765625 L 508.921875 524.765625 C 508.921875 496.335938 485.875 473.289062 457.449219 473.289062 Z M 457.449219 473.289062 "/><g clip-rule="nonzero" clip-path="url(#24ccb07000)"><path style=" stroke:none;fill-rule:nonzero;fill:#0f172a;fill-opacity:1;" d="M 431.710938 453.988281 C 456.542969 453.988281 476.75 433.78125 476.75 408.949219 C 476.75 384.117188 456.542969 363.910156 431.710938 363.910156 C 406.878906 363.910156 386.671875 384.117188 386.671875 408.949219 C 386.671875 433.78125 406.878906 453.988281 431.710938 453.988281 Z M 431.710938 376.777344 C 449.449219 376.777344 463.882812 391.203125 463.882812 408.949219 C 463.882812 426.691406 449.449219 441.121094 431.710938 441.121094 C 413.972656 441.121094 399.539062 426.691406 399.539062 408.949219 C 399.539062 391.203125 413.972656 376.777344 431.710938 376.777344 Z M 309.460938 318.871094 L 309.460938 499.027344 C 309.460938 516.773438 323.894531 531.199219 341.632812 531.199219 L 521.789062 531.199219 C 539.527344 531.199219 553.960938 516.773438 553.960938 499.027344 L 553.960938 318.871094 C 553.960938 301.125 539.527344 286.699219 521.789062 286.699219 L 341.632812 286.699219 C 323.894531 286.699219 309.460938 301.125 309.460938 318.871094 Z M 361.390625 518.332031 C 364.523438 496.527344 383.320312 479.726562 405.972656 479.726562 L 457.449219 479.726562 C 480.101562 479.726562 498.898438 496.527344 502.027344 518.332031 Z M 541.09375 318.871094 L 541.09375 499.027344 C 541.09375 509.671875 532.433594 518.332031 521.789062 518.332031 L 514.707031 518.332031 C 511.457031 489.457031 487.175781 466.855469 457.449219 466.855469 L 405.972656 466.855469 C 376.246094 466.855469 351.964844 489.457031 348.714844 518.332031 L 341.632812 518.332031 C 330.988281 518.332031 322.328125 509.671875 322.328125 499.027344 L 322.328125 318.871094 C 322.328125 308.226562 330.988281 299.566406 341.632812 299.566406 L 521.789062 299.566406 C 532.433594 299.566406 541.09375 308.226562 541.09375 318.871094 Z M 541.09375 318.871094 "/></g><g clip-rule="nonzero" clip-path="url(#ce8b27bfcc)"><path style=" stroke:none;fill-rule:evenodd;fill:#000000;fill-opacity:1;" d="M 37.261719 600.707031 C 35.613281 600.707031 34.269531 602.054688 34.269531 603.699219 L 34.273438 754.921875 C 34.273438 756.578125 35.613281 757.925781 37.261719 757.925781 L 265.070312 757.925781 C 266.714844 757.925781 268.058594 756.578125 268.058594 754.925781 L 268.0625 603.699219 C 268.0625 602.050781 266.714844 600.707031 265.070312 600.707031 Z M 265.070312 763.269531 L 37.261719 763.269531 C 32.671875 763.269531 28.933594 759.527344 28.933594 754.925781 L 28.933594 603.699219 C 28.933594 599.101562 32.671875 595.363281 37.261719 595.363281 L 265.070312 595.363281 C 269.660156 595.363281 273.398438 599.101562 273.398438 603.699219 L 273.398438 754.921875 C 273.398438 759.527344 269.660156 763.269531 265.070312 763.269531 Z M 265.070312 763.269531 "/></g><g clip-rule="nonzero" clip-path="url(#96c6f25dda)"><path style=" stroke:none;fill-rule:evenodd;fill:#000000;fill-opacity:1;" d="M 270.730469 627.800781 L 31.605469 627.800781 C 30.128906 627.800781 28.933594 626.601562 28.933594 625.128906 C 28.933594 623.652344 30.128906 622.457031 31.601562 622.457031 L 270.730469 622.457031 C 272.203125 622.457031 273.398438 623.652344 273.398438 625.128906 C 273.398438 626.601562 272.203125 627.800781 270.730469 627.800781 Z M 270.730469 627.800781 "/></g><path style=" stroke:none;fill-rule:evenodd;fill:#000000;fill-opacity:1;" d="M 93.933594 668.714844 C 86.574219 668.714844 80.589844 674.710938 80.589844 682.082031 C 80.589844 689.445312 86.574219 695.441406 93.933594 695.441406 C 101.296875 695.441406 107.277344 689.445312 107.277344 682.082031 C 107.277344 674.710938 101.296875 668.714844 93.933594 668.714844 Z M 93.933594 700.785156 C 83.632812 700.785156 75.253906 692.398438 75.253906 682.082031 C 75.253906 671.765625 83.632812 663.371094 93.933594 663.371094 C 104.238281 663.371094 112.613281 671.765625 112.613281 682.082031 C 112.617188 692.398438 104.234375 700.785156 93.933594 700.785156 Z M 93.933594 700.785156 "/><path style=" stroke:none;fill-rule:evenodd;fill:#000000;fill-opacity:1;" d="M 119.546875 742.089844 C 118.074219 742.089844 116.878906 740.894531 116.878906 739.421875 L 116.878906 720.953125 C 116.878906 712.242188 109.800781 705.160156 101.105469 705.160156 L 86.761719 705.160156 C 78.066406 705.160156 70.988281 712.242188 70.988281 720.953125 L 70.988281 739.417969 C 70.988281 740.894531 69.792969 742.09375 68.320312 742.09375 C 66.847656 742.089844 65.652344 740.894531 65.652344 739.421875 L 65.652344 720.953125 C 65.652344 709.296875 75.121094 699.816406 86.761719 699.816406 L 101.105469 699.816406 C 112.746094 699.816406 122.214844 709.296875 122.214844 720.953125 L 122.21875 739.417969 C 122.21875 740.894531 121.019531 742.09375 119.546875 742.089844 Z M 119.546875 742.089844 "/><path style=" stroke:none;fill-rule:evenodd;fill:#000000;fill-opacity:1;" d="M 81.804688 742.089844 C 80.332031 742.089844 79.132812 740.894531 79.132812 739.421875 L 79.136719 719.980469 C 79.136719 718.503906 80.328125 717.308594 81.800781 717.308594 C 83.277344 717.308594 84.472656 718.503906 84.472656 719.980469 L 84.472656 739.417969 C 84.472656 740.894531 83.277344 742.09375 81.804688 742.089844 Z M 81.804688 742.089844 "/><path style=" stroke:none;fill-rule:evenodd;fill:#000000;fill-opacity:1;" d="M 106.066406 742.089844 C 104.59375 742.089844 103.398438 740.894531 103.398438 739.421875 L 103.398438 719.980469 C 103.398438 718.503906 104.589844 717.308594 106.066406 717.308594 C 107.539062 717.308594 108.734375 718.503906 108.734375 719.980469 L 108.734375 739.417969 C 108.734375 740.894531 107.539062 742.09375 106.066406 742.089844 Z M 106.066406 742.089844 "/><path style=" stroke:none;fill-rule:evenodd;fill:#000000;fill-opacity:1;" d="M 65.589844 648.835938 C 61.882812 648.835938 58.867188 651.859375 58.867188 655.574219 L 58.871094 730.011719 C 58.871094 733.726562 61.882812 736.75 65.589844 736.75 L 122.277344 736.75 C 125.984375 736.75 129 733.726562 129 730.011719 L 129 655.574219 C 129 651.859375 125.984375 648.835938 122.277344 648.835938 Z M 122.277344 742.09375 L 65.589844 742.09375 C 58.941406 742.09375 53.53125 736.671875 53.53125 730.011719 L 53.535156 655.574219 C 53.535156 648.910156 58.941406 643.492188 65.589844 643.492188 L 122.277344 643.492188 C 128.929688 643.492188 134.335938 648.910156 134.335938 655.574219 L 134.335938 730.011719 C 134.335938 736.667969 128.925781 742.09375 122.277344 742.09375 Z M 122.277344 742.09375 "/><path style=" stroke:none;fill-rule:evenodd;fill:#000000;fill-opacity:1;" d="M 237.351562 704.414062 L 156.230469 704.414062 C 154.757812 704.414062 153.5625 703.21875 153.5625 701.742188 C 153.5625 700.269531 154.757812 699.070312 156.230469 699.070312 L 237.351562 699.070312 C 238.824219 699.070312 240.015625 700.269531 240.015625 701.742188 C 240.015625 703.21875 238.820312 704.414062 237.347656 704.414062 Z M 237.351562 704.414062 "/><path style=" stroke:none;fill-rule:evenodd;fill:#000000;fill-opacity:1;" d="M 228.570312 688.660156 L 156.230469 688.660156 C 154.757812 688.660156 153.5625 687.46875 153.5625 685.988281 C 153.5625 684.515625 154.757812 683.316406 156.230469 683.316406 L 228.570312 683.316406 C 230.046875 683.316406 231.238281 684.515625 231.238281 685.988281 C 231.238281 687.46875 230.042969 688.660156 228.570312 688.660156 Z M 228.570312 688.660156 "/><path style=" stroke:none;fill-rule:evenodd;fill:#000000;fill-opacity:1;" d="M 219.792969 672.914062 L 156.230469 672.914062 C 154.757812 672.914062 153.5625 671.714844 153.5625 670.242188 C 153.566406 668.765625 154.757812 667.570312 156.230469 667.570312 L 219.792969 667.570312 C 221.265625 667.570312 222.460938 668.765625 222.460938 670.242188 C 222.460938 671.714844 221.265625 672.914062 219.792969 672.914062 Z M 219.792969 672.914062 "/><path style=" stroke:none;fill-rule:evenodd;fill:#000000;fill-opacity:1;" d="M 246.136719 720.171875 L 156.230469 720.171875 C 154.757812 720.171875 153.5625 718.972656 153.5625 717.5 C 153.566406 716.023438 154.757812 714.828125 156.230469 714.828125 L 246.136719 714.828125 C 247.609375 714.828125 248.800781 716.023438 248.800781 717.5 C 248.800781 718.972656 247.605469 720.171875 246.136719 720.171875 Z M 246.136719 720.171875 "/><g clip-rule="nonzero" clip-path="url(#437bd15d54)"><path style=" stroke:none;fill-rule:nonzero;fill:#000000;fill-opacity:1;" d="M 514.125 675.285156 C 524.375 666.363281 530.871094 653.203125 530.871094 638.554688 C 530.871094 611.738281 509.128906 589.921875 482.40625 589.921875 C 465.949219 589.921875 451.636719 598.136719 442.992188 610.234375 C 434.1875 597.945312 419.820312 589.921875 403.617188 589.921875 C 376.894531 589.921875 355.15625 611.738281 355.15625 638.550781 C 355.15625 653.203125 361.648438 666.363281 371.898438 675.289062 C 341.480469 687.910156 320.761719 717.964844 320.761719 752.121094 C 320.761719 756.105469 323.984375 759.335938 327.953125 759.335938 C 336.519531 759.335938 547.65625 759.335938 558.070312 759.335938 C 562.042969 759.335938 565.261719 756.105469 565.261719 752.121094 C 565.261719 717.960938 544.546875 687.910156 514.125 675.285156 Z M 450.671875 675.300781 C 448.070312 676.382812 445.523438 677.605469 443.035156 678.957031 C 440.546875 677.609375 437.980469 676.382812 435.335938 675.285156 C 438.203125 672.792969 440.773438 669.964844 442.992188 666.871094 C 445.195312 669.953125 447.765625 672.78125 450.671875 675.300781 Z M 369.539062 638.550781 C 369.539062 619.695312 384.828125 604.355469 403.617188 604.355469 C 422.410156 604.355469 437.699219 619.695312 437.699219 638.550781 C 437.699219 657.40625 422.410156 672.746094 403.617188 672.746094 C 384.828125 672.746094 369.539062 657.40625 369.539062 638.550781 Z M 450.203125 744.90625 L 450.203125 737.691406 C 450.203125 733.703125 446.984375 730.472656 443.011719 730.472656 C 439.042969 730.472656 435.820312 733.703125 435.820312 737.691406 L 435.820312 744.90625 C 429.375 744.90625 379.289062 744.90625 371.101562 744.90625 L 371.101562 737.691406 C 371.101562 733.703125 367.882812 730.472656 363.910156 730.472656 C 359.9375 730.472656 356.71875 733.703125 356.71875 737.691406 L 356.71875 744.90625 L 335.519531 744.90625 C 338.582031 715.609375 360.09375 691.222656 389.128906 684.957031 C 398.304688 687.847656 408.484375 687.992188 418.109375 684.957031 C 446.925781 691.175781 468.628906 715.386719 471.714844 744.90625 Z M 482.40625 672.746094 C 468.160156 672.746094 455.566406 664.023438 450.546875 650.703125 C 452.585938 642.78125 452.59375 634.355469 450.546875 626.398438 C 455.546875 613.132812 468.097656 604.355469 482.40625 604.355469 C 501.199219 604.355469 516.488281 619.695312 516.488281 638.554688 C 516.488281 657.40625 501.199219 672.746094 482.40625 672.746094 Z M 482.40625 672.746094 "/></g></g></svg>